<svg width="20" height="20" viewBox="0 0 20 20" fill="none" xmlns="http://www.w3.org/2000/svg">
<g id="Apple">
<path id="Apple Vector" d="M18.4933 15.5861C18.1909 16.2848 17.8328 16.928 17.4181 17.5194C16.8526 18.3255 16.3897 18.8835 16.0329 19.1934C15.4798 19.702 14.8873 19.9625 14.2527 19.9773C13.7972 19.9773 13.2478 19.8477 12.6083 19.5847C11.9667 19.323 11.3771 19.1934 10.838 19.1934C10.2726 19.1934 9.66617 19.323 9.01757 19.5847C8.36795 19.8477 7.84464 19.9847 7.44452 19.9983C6.83603 20.0242 6.22951 19.7563 5.6241 19.1934C5.23767 18.8563 4.75437 18.2786 4.17536 17.4601C3.55415 16.586 3.04343 15.5725 2.64331 14.417C2.21481 13.1689 2 11.9603 2 10.7902C2 9.44985 2.28962 8.29383 2.86973 7.3251C3.32564 6.54698 3.93216 5.93316 4.69128 5.48257C5.45038 5.03197 6.27061 4.80233 7.15392 4.78766C7.63724 4.78766 8.27104 4.93716 9.05867 5.23097C9.84408 5.52579 10.3484 5.67528 10.5695 5.67528C10.7348 5.67528 11.295 5.50046 12.2447 5.15196C13.1429 4.82877 13.9009 4.69492 14.5218 4.74765C16.2045 4.88345 17.4687 5.54676 18.3094 6.74179C16.8045 7.65362 16.06 8.93073 16.0749 10.5691C16.0885 11.8452 16.5514 12.9071 17.4612 13.7503C17.8736 14.1417 18.3341 14.4441 18.8464 14.659C18.7353 14.9812 18.618 15.2898 18.4933 15.5861ZM14.6342 0.400119C14.6342 1.40034 14.2688 2.33425 13.5404 3.19868C12.6614 4.22631 11.5982 4.82011 10.4453 4.72641C10.4299 4.60066 10.4221 4.47409 10.4221 4.3474C10.4221 3.38719 10.8401 2.35956 11.5824 1.51934C11.953 1.09392 12.4244 0.740197 12.996 0.45802C13.5663 0.180054 14.1058 0.0263309 14.6132 0C14.628 0.13371 14.6342 0.267453 14.6342 0.400119Z" fill="currentColor"/>
</g>
</svg>
