<svg
  width="20"
  height="20"
  viewBox="0 0 20 20"
  fill="none"
  xmlns="http://www.w3.org/2000/svg"
>
<g id="Arrow back">
<path
      id="arrow_back_ios"
      d="M6.87403 10.0068L14.626 17.7588C14.8897 18.0225 15.0171 18.3301 15.0083 18.6816C14.9995 19.0332 14.8633 19.3408 14.5996 19.6045C14.336 19.8682 14.0284 20 13.6768 20C13.3252 20 13.0176 19.8682 12.7539 19.6045L4.63281 11.5097C4.42188 11.2988 4.26367 11.0615 4.1582 10.7978C4.05273 10.5342 4 10.2705 4 10.0068C4 9.74313 4.05273 9.47946 4.1582 9.21579C4.26367 8.95212 4.42188 8.71481 4.63281 8.50387L12.7539 0.382751C13.0176 0.119078 13.3296 -0.00836381 13.69 0.000425279C14.0503 0.00921437 14.3623 0.145445 14.626 0.409118C14.8897 0.672791 15.0215 0.980409 15.0215 1.33197C15.0215 1.68354 14.8897 1.99115 14.626 2.25483L6.87403 10.0068Z"
      fill="currentColor"
    />
</g>
</svg>
