<svg width="16" height="16" viewBox="0 0 16 16" fill="none" xmlns="http://www.w3.org/2000/svg">
<path d="M8 12.3991C7.80867 12.3991 7.6293 12.3692 7.46188 12.3094C7.29447 12.2496 7.13901 12.148 6.99552 12.0045L0.394619 5.40359C0.13154 5.14051 0 4.80568 0 4.3991C0 3.99253 0.13154 3.6577 0.394619 3.39462C0.657698 3.13154 0.992526 3 1.3991 3C1.80568 3 2.14051 3.13154 2.40359 3.39462L8 8.99103L13.5964 3.39462C13.8595 3.13154 14.1943 3 14.6009 3C15.0075 3 15.3423 3.13154 15.6054 3.39462C15.8685 3.6577 16 3.99253 16 4.3991C16 4.80568 15.8685 5.14051 15.6054 5.40359L9.00448 12.0045C8.86099 12.148 8.70553 12.2496 8.53812 12.3094C8.3707 12.3692 8.19133 12.3991 8 12.3991Z" fill="currentColor"/>
</svg>
