<svg width="24" height="24" viewBox="0 0 24 24" fill="none" xmlns="http://www.w3.org/2000/svg">
<g clip-path="url(#clip0_3877_2166)">
<path d="M12 15.6663C14.0251 15.6663 15.6667 14.0247 15.6667 11.9997C15.6667 9.97463 14.0251 8.33301 12 8.33301C9.975 8.33301 8.33337 9.97463 8.33337 11.9997C8.33337 14.0247 9.975 15.6663 12 15.6663Z" stroke="currentColor" stroke-width="2" stroke-linecap="round" stroke-linejoin="round"/>
<path d="M15.6667 8.33302V12.9163C15.6667 13.6457 15.9564 14.3452 16.4722 14.8609C16.9879 15.3766 17.6874 15.6663 18.4167 15.6663C19.1461 15.6663 19.8455 15.3766 20.3613 14.8609C20.877 14.3452 21.1667 13.6457 21.1667 12.9163V11.9997C21.1667 9.93471 20.4695 7.93023 19.188 6.311C17.9065 4.69178 16.1158 3.55267 14.1061 3.07823C12.0964 2.6038 9.98534 2.82184 8.115 3.69702C6.24467 4.5722 4.72462 6.05326 3.80114 7.90022C2.87765 9.74719 2.60484 11.8519 3.02689 13.8732C3.44895 15.8946 4.54115 17.7143 6.12653 19.0374C7.71192 20.3605 9.69761 21.1096 11.7619 21.1633C13.8262 21.2169 15.8481 20.572 17.5001 19.333" stroke="currentColor" stroke-width="2" stroke-linecap="round" stroke-linejoin="round"/>
</g>
<defs>
<clipPath id="clip0_3877_2166">
<rect width="22" height="22" fill="white" transform="translate(1 1)"/>
</clipPath>
</defs>
</svg>
