<svg width="24" height="24" viewBox="0 0 24 24" fill="none" xmlns="http://www.w3.org/2000/svg">
<g clip-path="url(#clip0_3877_2109)">
<path d="M9 3.90001C9.82165 3.35837 10.7743 3.04926 11.7572 3.00541C12.74 2.96157 13.7164 3.18463 14.5829 3.65097C15.4494 4.1173 16.1738 4.80955 16.6794 5.65439C17.1849 6.49923 17.4527 7.46521 17.4545 8.45C17.456 9.98292 17.6391 11.5103 18 13" stroke="currentColor" stroke-width="2" stroke-linecap="round" stroke-linejoin="round"/>
<path d="M9 3.90001C9.82165 3.35837 10.7743 3.04926 11.7572 3.00541C12.74 2.96157 13.7164 3.18463 14.5829 3.65097C15.4494 4.1173 16.1738 4.80955 16.6794 5.65439C17.1849 6.49923 17.4527 7.46521 17.4545 8.45C17.456 9.98292 17.6391 11.5103 18 13" stroke="currentColor" stroke-opacity="0.2" stroke-width="2" stroke-linecap="round" stroke-linejoin="round"/>
<path d="M9 3.90001C9.82165 3.35837 10.7743 3.04926 11.7572 3.00541C12.74 2.96157 13.7164 3.18463 14.5829 3.65097C15.4494 4.1173 16.1738 4.80955 16.6794 5.65439C17.1849 6.49923 17.4527 7.46521 17.4545 8.45C17.456 9.98292 17.6391 11.5103 18 13" stroke="currentColor" stroke-opacity="0.2" stroke-width="2" stroke-linecap="round" stroke-linejoin="round"/>
<path d="M17 17H4C4 17 6.78571 15.1308 6.78571 8.58878C6.77967 8.04637 6.87414 7.50757 7.06429 7" stroke="currentColor" stroke-width="2" stroke-linecap="round" stroke-linejoin="round"/>
<path d="M17 17H4C4 17 6.78571 15.1308 6.78571 8.58878C6.77967 8.04637 6.87414 7.50757 7.06429 7" stroke="currentColor" stroke-opacity="0.2" stroke-width="2" stroke-linecap="round" stroke-linejoin="round"/>
<path d="M17 17H4C4 17 6.78571 15.1308 6.78571 8.58878C6.77967 8.04637 6.87414 7.50757 7.06429 7" stroke="currentColor" stroke-opacity="0.2" stroke-width="2" stroke-linecap="round" stroke-linejoin="round"/>
<path d="M11 20C11.1477 20.3028 11.3648 20.5554 11.6287 20.7313C11.8925 20.9072 12.1935 21 12.5 21C12.8065 21 13.1075 20.9072 13.3713 20.7313C13.6352 20.5554 13.8523 20.3028 14 20" stroke="currentColor" stroke-width="2" stroke-linecap="round" stroke-linejoin="round"/>
<path d="M11 20C11.1477 20.3028 11.3648 20.5554 11.6287 20.7313C11.8925 20.9072 12.1935 21 12.5 21C12.8065 21 13.1075 20.9072 13.3713 20.7313C13.6352 20.5554 13.8523 20.3028 14 20" stroke="currentColor" stroke-opacity="0.2" stroke-width="2" stroke-linecap="round" stroke-linejoin="round"/>
<path d="M11 20C11.1477 20.3028 11.3648 20.5554 11.6287 20.7313C11.8925 20.9072 12.1935 21 12.5 21C12.8065 21 13.1075 20.9072 13.3713 20.7313C13.6352 20.5554 13.8523 20.3028 14 20" stroke="currentColor" stroke-opacity="0.2" stroke-width="2" stroke-linecap="round" stroke-linejoin="round"/>
<path d="M3 3L21 21" stroke="currentColor" stroke-width="2" stroke-linecap="round" stroke-linejoin="round"/>
<path d="M3 3L21 21" stroke="currentColor" stroke-opacity="0.2" stroke-width="2" stroke-linecap="round" stroke-linejoin="round"/>
<path d="M3 3L21 21" stroke="currentColor" stroke-opacity="0.2" stroke-width="2" stroke-linecap="round" stroke-linejoin="round"/>
</g>
<defs>
<clipPath id="clip0_3877_2109">
<rect width="20" height="20" fill="white" transform="translate(2 2)"/>
</clipPath>
</defs>
</svg>
