<svg
  width="24"
  height="24"
  viewBox="0 0 24 24"
  fill="none"
  xmlns="http://www.w3.org/2000/svg"
>
<g clip-path="url(#clip0_3322_28795)">
<path
      d="M12 22C12 22 20 18 20 12V5L12 2L4 5V12C4 18 12 22 12 22Z"
      stroke="currentColor"
      stroke-width="2"
      stroke-linecap="round"
      stroke-linejoin="round"
    />
<path
      d="M12 22C12 22 20 18 20 12V5L12 2L4 5V12C4 18 12 22 12 22Z"
      stroke="currentColor"
      stroke-opacity="0.2"
      stroke-width="2"
      stroke-linecap="round"
      stroke-linejoin="round"
    />
<path
      d="M12 22C12 22 20 18 20 12V5L12 2L4 5V12C4 18 12 22 12 22Z"
      stroke="currentColor"
      stroke-opacity="0.2"
      stroke-width="2"
      stroke-linecap="round"
      stroke-linejoin="round"
    />
<path
      d="M14.5 9L9.5 14"
      stroke="currentColor"
      stroke-width="2"
      stroke-linecap="round"
      stroke-linejoin="round"
    />
<path
      d="M14.5 9L9.5 14"
      stroke="currentColor"
      stroke-opacity="0.2"
      stroke-width="2"
      stroke-linecap="round"
      stroke-linejoin="round"
    />
<path
      d="M14.5 9L9.5 14"
      stroke="currentColor"
      stroke-opacity="0.2"
      stroke-width="2"
      stroke-linecap="round"
      stroke-linejoin="round"
    />
<path
      d="M9.5 9L14.5 14"
      stroke="currentColor"
      stroke-width="2"
      stroke-linecap="round"
      stroke-linejoin="round"
    />
<path
      d="M9.5 9L14.5 14"
      stroke="currentColor"
      stroke-opacity="0.2"
      stroke-width="2"
      stroke-linecap="round"
      stroke-linejoin="round"
    />
<path
      d="M9.5 9L14.5 14"
      stroke="currentColor"
      stroke-opacity="0.2"
      stroke-width="2"
      stroke-linecap="round"
      stroke-linejoin="round"
    />
</g>
<defs>
<clipPath id="clip0_3322_28795">
<rect width="24" height="24" fill="white" />
</clipPath>
</defs>
</svg>
