<svg width="18" height="20" viewBox="0 0 18 20" fill="none" xmlns="http://www.w3.org/2000/svg">
<g clip-path="url(#clip0_3819_50542)">
<path d="M16.166 19L9.16602 15L2.16602 19V3C2.16602 2.46957 2.37673 1.96086 2.7518 1.58579C3.12687 1.21071 3.63558 1 4.16602 1H14.166C14.6964 1 15.2052 1.21071 15.5802 1.58579C15.9553 1.96086 16.166 2.46957 16.166 3V19Z" stroke="currentColor" stroke-width="2" stroke-linecap="round" stroke-linejoin="round"/>
<path d="M16.166 19L9.16602 15L2.16602 19V3C2.16602 2.46957 2.37673 1.96086 2.7518 1.58579C3.12687 1.21071 3.63558 1 4.16602 1H14.166C14.6964 1 15.2052 1.21071 15.5802 1.58579C15.9553 1.96086 16.166 2.46957 16.166 3V19Z" stroke="currentColor" stroke-opacity="0.2" stroke-width="2" stroke-linecap="round" stroke-linejoin="round"/>
<path d="M16.166 19L9.16602 15L2.16602 19V3C2.16602 2.46957 2.37673 1.96086 2.7518 1.58579C3.12687 1.21071 3.63558 1 4.16602 1H14.166C14.6964 1 15.2052 1.21071 15.5802 1.58579C15.9553 1.96086 16.166 2.46957 16.166 3V19Z" stroke="currentColor" stroke-opacity="0.2" stroke-width="2" stroke-linecap="round" stroke-linejoin="round"/>
</g>
</svg>
