<svg width="24" height="24" viewBox="0 0 24 24" fill="none" xmlns="http://www.w3.org/2000/svg">
<g clip-path="url(#clip0_930_10146)">
<path d="M12 19.875C16.97 19.875 21 16.181 21 11.625C21 7.069 16.97 3.375 12 3.375C7.03 3.375 3 7.069 3 11.625C3 13.729 3.859 15.648 5.273 17.105C5.705 17.552 6.013 18.145 5.859 18.746C5.69037 19.4032 5.37478 20.0135 4.936 20.531C5.28714 20.5941 5.64324 20.6255 6 20.625C7.282 20.625 8.47 20.223 9.445 19.538C10.255 19.758 11.113 19.875 12 19.875Z" stroke="currentColor" stroke-width="2" stroke-linecap="round" stroke-linejoin="round"/>
<path d="M12 19.875C16.97 19.875 21 16.181 21 11.625C21 7.069 16.97 3.375 12 3.375C7.03 3.375 3 7.069 3 11.625C3 13.729 3.859 15.648 5.273 17.105C5.705 17.552 6.013 18.145 5.859 18.746C5.69037 19.4032 5.37478 20.0135 4.936 20.531C5.28714 20.5941 5.64324 20.6255 6 20.625C7.282 20.625 8.47 20.223 9.445 19.538C10.255 19.758 11.113 19.875 12 19.875Z" stroke="currentColor" stroke-opacity="0.2" stroke-width="2" stroke-linecap="round" stroke-linejoin="round"/>
<path d="M12 19.875C16.97 19.875 21 16.181 21 11.625C21 7.069 16.97 3.375 12 3.375C7.03 3.375 3 7.069 3 11.625C3 13.729 3.859 15.648 5.273 17.105C5.705 17.552 6.013 18.145 5.859 18.746C5.69037 19.4032 5.37478 20.0135 4.936 20.531C5.28714 20.5941 5.64324 20.6255 6 20.625C7.282 20.625 8.47 20.223 9.445 19.538C10.255 19.758 11.113 19.875 12 19.875Z" stroke="currentColor" stroke-opacity="0.2" stroke-width="2" stroke-linecap="round" stroke-linejoin="round"/>
</g>
<defs>
<clipPath id="clip0_930_10146">
<rect width="20" height="20" fill="white" transform="translate(2 2)"/>
</clipPath>
</defs>
</svg>
