<svg
  width="36"
  height="36"
  viewBox="0 0 36 36"
  fill="none"
  xmlns="http://www.w3.org/2000/svg"
>
<g filter="url(#filter0_b_3710_18767)">
<rect width="36" height="36" rx="18" fill="#F4F4F4" />
<path
      d="M23.8333 10.5H12.1667C11.2462 10.5 10.5 11.2462 10.5 12.1667V23.8333C10.5 24.7538 11.2462 25.5 12.1667 25.5H23.8333C24.7538 25.5 25.5 24.7538 25.5 23.8333V12.1667C25.5 11.2462 24.7538 10.5 23.8333 10.5Z"
      stroke="#878787"
      stroke-width="2"
      stroke-linecap="round"
      stroke-linejoin="round"
    />
<path
      d="M15.5002 17.1654C16.4206 17.1654 17.1668 16.4192 17.1668 15.4987C17.1668 14.5782 16.4206 13.832 15.5002 13.832C14.5797 13.832 13.8335 14.5782 13.8335 15.4987C13.8335 16.4192 14.5797 17.1654 15.5002 17.1654Z"
      stroke="#878787"
      stroke-width="2"
      stroke-linecap="round"
      stroke-linejoin="round"
    />
<path
      d="M25.5 20.5011L22.9283 17.9294C22.6158 17.6169 22.1919 17.4414 21.75 17.4414C21.3081 17.4414 20.8842 17.6169 20.5717 17.9294L13 25.501"
      stroke="#878787"
      stroke-width="2"
      stroke-linecap="round"
      stroke-linejoin="round"
    />
</g>
<defs>
<filter
      id="filter0_b_3710_18767"
      x="-100"
      y="-100"
      width="236"
      height="236"
      filterUnits="userSpaceOnUse"
      color-interpolation-filters="sRGB"
    >
<feFlood flood-opacity="0" result="BackgroundImageFix" />
<feGaussianBlur in="BackgroundImageFix" stdDeviation="50" />
<feComposite
        in2="SourceAlpha"
        operator="in"
        result="effect1_backgroundBlur_3710_18767"
      />
<feBlend
        mode="normal"
        in="SourceGraphic"
        in2="effect1_backgroundBlur_3710_18767"
        result="shape"
      />
</filter>
</defs>
</svg>
