<svg width="40" height="40" viewBox="0 0 40 40" fill="none" xmlns="http://www.w3.org/2000/svg">
<path d="M16.667 3.33398V6.66732" stroke="currentColor" stroke-width="2.5" stroke-linecap="round" stroke-linejoin="round"/>
<path d="M16.667 3.33398V6.66732" stroke="currentColor" stroke-opacity="0.2" stroke-width="2.5" stroke-linecap="round" stroke-linejoin="round"/>
<path d="M16.667 3.33398V6.66732" stroke="currentColor" stroke-opacity="0.2" stroke-width="2.5" stroke-linecap="round" stroke-linejoin="round"/>
<path d="M23.333 3.33398V6.66732" stroke="currentColor" stroke-width="2.5" stroke-linecap="round" stroke-linejoin="round"/>
<path d="M23.333 3.33398V6.66732" stroke="currentColor" stroke-opacity="0.2" stroke-width="2.5" stroke-linecap="round" stroke-linejoin="round"/>
<path d="M23.333 3.33398V6.66732" stroke="currentColor" stroke-opacity="0.2" stroke-width="2.5" stroke-linecap="round" stroke-linejoin="round"/>
<path d="M26.6667 13.334C27.1087 13.334 27.5326 13.5096 27.8452 13.8221C28.1577 14.1347 28.3333 14.5586 28.3333 15.0007V28.334C28.3333 30.1021 27.631 31.7978 26.3807 33.048C25.1305 34.2983 23.4348 35.0007 21.6667 35.0007H11.6667C9.89856 35.0007 8.20286 34.2983 6.95262 33.048C5.70238 31.7978 5 30.1021 5 28.334V15.0007C5 14.5586 5.17559 14.1347 5.48816 13.8221C5.80072 13.5096 6.22464 13.334 6.66667 13.334H30C31.7681 13.334 33.4638 14.0364 34.714 15.2866C35.9643 16.5368 36.6667 18.2325 36.6667 20.0007C36.6667 21.7688 35.9643 23.4645 34.714 24.7147C33.4638 25.9649 31.7681 26.6673 30 26.6673H28.3333" stroke="currentColor" stroke-width="2.5" stroke-linecap="round" stroke-linejoin="round"/>
<path d="M26.6667 13.334C27.1087 13.334 27.5326 13.5096 27.8452 13.8221C28.1577 14.1347 28.3333 14.5586 28.3333 15.0007V28.334C28.3333 30.1021 27.631 31.7978 26.3807 33.048C25.1305 34.2983 23.4348 35.0007 21.6667 35.0007H11.6667C9.89856 35.0007 8.20286 34.2983 6.95262 33.048C5.70238 31.7978 5 30.1021 5 28.334V15.0007C5 14.5586 5.17559 14.1347 5.48816 13.8221C5.80072 13.5096 6.22464 13.334 6.66667 13.334H30C31.7681 13.334 33.4638 14.0364 34.714 15.2866C35.9643 16.5368 36.6667 18.2325 36.6667 20.0007C36.6667 21.7688 35.9643 23.4645 34.714 24.7147C33.4638 25.9649 31.7681 26.6673 30 26.6673H28.3333" stroke="currentColor" stroke-opacity="0.2" stroke-width="2.5" stroke-linecap="round" stroke-linejoin="round"/>
<path d="M26.6667 13.334C27.1087 13.334 27.5326 13.5096 27.8452 13.8221C28.1577 14.1347 28.3333 14.5586 28.3333 15.0007V28.334C28.3333 30.1021 27.631 31.7978 26.3807 33.048C25.1305 34.2983 23.4348 35.0007 21.6667 35.0007H11.6667C9.89856 35.0007 8.20286 34.2983 6.95262 33.048C5.70238 31.7978 5 30.1021 5 28.334V15.0007C5 14.5586 5.17559 14.1347 5.48816 13.8221C5.80072 13.5096 6.22464 13.334 6.66667 13.334H30C31.7681 13.334 33.4638 14.0364 34.714 15.2866C35.9643 16.5368 36.6667 18.2325 36.6667 20.0007C36.6667 21.7688 35.9643 23.4645 34.714 24.7147C33.4638 25.9649 31.7681 26.6673 30 26.6673H28.3333" stroke="currentColor" stroke-opacity="0.2" stroke-width="2.5" stroke-linecap="round" stroke-linejoin="round"/>
<path d="M10 3.33398V6.66732" stroke="currentColor" stroke-width="2.5" stroke-linecap="round" stroke-linejoin="round"/>
<path d="M10 3.33398V6.66732" stroke="currentColor" stroke-opacity="0.2" stroke-width="2.5" stroke-linecap="round" stroke-linejoin="round"/>
<path d="M10 3.33398V6.66732" stroke="currentColor" stroke-opacity="0.2" stroke-width="2.5" stroke-linecap="round" stroke-linejoin="round"/>
</svg>
