<svg width="21" height="20" viewBox="0 0 21 20" fill="none" xmlns="http://www.w3.org/2000/svg">
<path d="M10.0115 17.0005C11.3959 17.0005 12.7493 16.5899 13.9005 15.8208C15.0516 15.0516 15.9488 13.9584 16.4786 12.6793C17.0084 11.4002 17.1471 9.99273 16.877 8.63486C16.6069 7.27699 15.9402 6.02971 14.9612 5.05074C13.9823 4.07178 12.735 3.40509 11.3771 3.13499C10.0192 2.8649 8.61177 3.00352 7.33269 3.53333C6.05361 4.06315 4.96036 4.96036 4.19119 6.1115C3.42202 7.26264 3.01147 8.61602 3.01147 10.0005C3.01147 11.1578 3.29147 12.2483 3.78925 13.2104L3.01147 17.0005L6.80158 16.2227C7.76292 16.7197 8.85492 17.0005 10.0115 17.0005Z" stroke="currentColor" stroke-width="1.5" stroke-linecap="round" stroke-linejoin="round"/>
<path d="M10.0115 17.0005C11.3959 17.0005 12.7493 16.5899 13.9005 15.8208C15.0516 15.0516 15.9488 13.9584 16.4786 12.6793C17.0084 11.4002 17.1471 9.99273 16.877 8.63486C16.6069 7.27699 15.9402 6.02971 14.9612 5.05074C13.9823 4.07178 12.735 3.40509 11.3771 3.13499C10.0192 2.8649 8.61177 3.00352 7.33269 3.53333C6.05361 4.06315 4.96036 4.96036 4.19119 6.1115C3.42202 7.26264 3.01147 8.61602 3.01147 10.0005C3.01147 11.1578 3.29147 12.2483 3.78925 13.2104L3.01147 17.0005L6.80158 16.2227C7.76292 16.7197 8.85492 17.0005 10.0115 17.0005Z" stroke="currentColor" stroke-opacity="0.2" stroke-width="1.5" stroke-linecap="round" stroke-linejoin="round"/>
<path d="M10.0115 17.0005C11.3959 17.0005 12.7493 16.5899 13.9005 15.8208C15.0516 15.0516 15.9488 13.9584 16.4786 12.6793C17.0084 11.4002 17.1471 9.99273 16.877 8.63486C16.6069 7.27699 15.9402 6.02971 14.9612 5.05074C13.9823 4.07178 12.735 3.40509 11.3771 3.13499C10.0192 2.8649 8.61177 3.00352 7.33269 3.53333C6.05361 4.06315 4.96036 4.96036 4.19119 6.1115C3.42202 7.26264 3.01147 8.61602 3.01147 10.0005C3.01147 11.1578 3.29147 12.2483 3.78925 13.2104L3.01147 17.0005L6.80158 16.2227C7.76292 16.7197 8.85492 17.0005 10.0115 17.0005Z" stroke="currentColor" stroke-opacity="0.2" stroke-width="1.5" stroke-linecap="round" stroke-linejoin="round"/>
</svg>
