<svg width="33" height="32" viewBox="0 0 33 32" fill="none" xmlns="http://www.w3.org/2000/svg">
<g id="icon-mail.0780909b4f7b6104c0c5cfb00e123417" clip-path="url(#clip0_4646_64565)">
<path id="Vector" d="M24.6202 10.3811L16.5 15.9073L8.37981 10.3811C8.53216 10.0429 8.88637 9.8 9.3 9.8H23.7C24.1136 9.8 24.4678 10.0429 24.6202 10.3811ZM24.7 12.2621V21.25C24.7 21.7656 24.2531 22.2 23.7 22.2H9.3C8.74686 22.2 8.3 21.7656 8.3 21.25V12.2621L16.5 17.8427L24.7 12.2621ZM16.5 0C25.337 0 32.5 7.163 32.5 16C32.5 24.837 25.337 32 16.5 32C7.663 32 0.5 24.837 0.5 16C0.5 7.163 7.663 0 16.5 0ZM9.3 8.2C7.87314 8.2 6.7 9.34055 6.7 10.75V21.25C6.7 22.6595 7.87314 23.8 9.3 23.8H23.7C25.1269 23.8 26.3 22.6595 26.3 21.25V10.75C26.3 9.34055 25.1269 8.2 23.7 8.2H9.3Z" fill="white"/>
</g>
<defs>
<clipPath id="clip0_4646_64565">
<rect width="32" height="32" fill="white" transform="translate(0.5)"/>
</clipPath>
</defs>
</svg>
