<svg width="33" height="32" viewBox="0 0 33 32" fill="none" xmlns="http://www.w3.org/2000/svg">
<path id="Vector" d="M32.5 16C32.5 24.8379 25.3379 32 16.5 32C7.66206 32 0.5 24.8379 0.5 16C0.5 7.16206 7.66206 0 16.5 0C25.3379 0 32.5 7.16206 32.5 16ZM16.5 7.80125C19.1719 7.80125 19.4881 7.81313 20.5387 7.86C21.5156 7.90313 22.0425 8.06687 22.3944 8.20375C22.8594 8.38375 23.195 8.6025 23.5425 8.95C23.8944 9.30188 24.1087 9.63375 24.2925 10.0988C24.4294 10.4506 24.5931 10.9813 24.6362 11.9544C24.6831 13.0094 24.695 13.3256 24.695 15.9937C24.695 18.6619 24.6831 18.9819 24.6362 20.0331C24.5931 21.01 24.4294 21.5369 24.2925 21.8888C24.1125 22.3538 23.8944 22.6894 23.5462 23.0369C23.1944 23.3888 22.8625 23.6031 22.3981 23.7869C22.0462 23.9237 21.515 24.0875 20.5425 24.1306C19.4875 24.1775 19.1712 24.1894 16.5031 24.1894C13.835 24.1894 13.515 24.1775 12.4637 24.1306C11.4869 24.0875 10.96 23.9237 10.6081 23.7869C10.1431 23.6069 9.8075 23.3888 9.45938 23.0406C9.1075 22.6887 8.89313 22.3569 8.70938 21.8925C8.5725 21.5406 8.40875 21.0094 8.36562 20.0369C8.31875 18.9819 8.30688 18.6656 8.30688 15.9975C8.30688 13.3294 8.31875 13.0094 8.36562 11.9581C8.40875 10.9812 8.5725 10.4544 8.70938 10.1025C8.88938 9.6375 9.10812 9.30188 9.45562 8.95375C9.8075 8.60187 10.1394 8.3875 10.6044 8.20375C10.9563 8.06687 11.4869 7.90313 12.46 7.86C13.5106 7.81313 13.8281 7.80125 16.5 7.80125ZM16.5 6.00063C13.785 6.00063 13.4456 6.0125 12.3787 6.05937C11.3162 6.10625 10.5856 6.27812 9.95312 6.52437C9.29313 6.78188 8.73438 7.12187 8.18 7.68062C7.62125 8.23563 7.28125 8.79375 7.02375 9.45C6.7775 10.0869 6.60563 10.8131 6.55875 11.8756C6.51188 12.9462 6.5 13.2856 6.5 16.0006C6.5 18.7156 6.51188 19.055 6.55875 20.1219C6.60563 21.1844 6.7775 21.915 7.02375 22.5475C7.28187 23.2075 7.62125 23.7663 8.18 24.3206C8.73438 24.875 9.29313 25.2194 9.94938 25.4731C10.5863 25.7194 11.3125 25.8913 12.375 25.9381C13.4412 25.985 13.7812 25.9969 16.4963 25.9969C19.2113 25.9969 19.5513 25.985 20.6175 25.9381C21.68 25.8913 22.4106 25.7194 23.0431 25.4731C23.6994 25.2194 24.2581 24.8756 24.8125 24.3206C25.3669 23.7656 25.7113 23.2075 25.965 22.5513C26.2113 21.9144 26.3831 21.1881 26.43 20.1256C26.4769 19.0594 26.4888 18.7194 26.4888 16.0044C26.4888 13.2894 26.4769 12.95 26.43 11.8831C26.3831 10.8206 26.2113 10.09 25.965 9.4575C25.7188 8.79313 25.3787 8.235 24.8206 7.68C24.2663 7.12562 23.7075 6.78125 23.0513 6.5275C22.4144 6.28125 21.6881 6.10938 20.6256 6.0625C19.5556 6.01188 19.215 6.00063 16.5 6.00063ZM16.5 10.8638C13.6644 10.8638 11.3631 13.1644 11.3631 16.0006C11.3631 18.8369 13.6637 21.1375 16.5 21.1375C19.3363 21.1375 21.6369 18.8369 21.6369 16.0006C21.6369 13.165 19.3363 10.8638 16.5 10.8638ZM16.5 19.3325C14.66 19.3325 13.1681 17.8406 13.1681 16.0006C13.1681 14.1606 14.66 12.6687 16.5 12.6687C18.34 12.6687 19.8319 14.1606 19.8319 16.0006C19.8319 17.8406 18.34 19.3325 16.5 19.3325ZM23.0387 10.6606C23.0387 9.99813 22.5019 9.46125 21.8394 9.46125C21.1769 9.46125 20.64 9.99813 20.64 10.6606C20.64 11.3231 21.1769 11.86 21.8394 11.86C22.5019 11.86 23.0387 11.3231 23.0387 10.6606Z" fill="white"/>
</svg>
