<svg width="246" height="74" viewBox="0 0 246 74" fill="none" xmlns="http://www.w3.org/2000/svg">
<g id="ios_badge_ch.cd7dcacabad765ef247aea0674cd531f" clip-path="url(#clip0_4646_64549)">
<g id="Group">
<path id="Vector" d="M16.2599 73.9961C15.6257 73.9961 15.0069 73.9886 14.3777 73.9754C13.0743 73.9596 11.774 73.8542 10.4873 73.6599C9.28758 73.4679 8.12536 73.1106 7.039 72.6C5.96259 72.0936 4.98082 71.4295 4.13129 70.6333C3.26948 69.8465 2.55197 68.9339 2.00722 67.9317C1.45646 66.923 1.0753 65.8419 0.877023 64.7258C0.662899 63.5266 0.547048 62.3141 0.530472 61.0986C0.517276 60.6906 0.5 59.3321 0.5 59.3321V14.6432C0.5 14.6432 0.518399 13.3056 0.530576 12.9127C0.546448 11.6991 0.661624 10.4884 0.875108 9.29107C1.07375 8.17198 1.45521 7.08767 2.00626 6.07567C2.54901 5.07419 3.26253 4.16092 4.11916 3.37128C4.97482 2.57414 5.95974 1.90669 7.03798 1.39327C8.12185 0.884266 9.28187 0.529546 10.4792 0.341001C11.77 0.144773 13.0749 0.0386832 14.3828 0.0236207L16.2609 0H230.162L232.063 0.0245687C233.359 0.0388827 234.652 0.144026 235.931 0.339105C237.14 0.530016 238.312 0.88721 239.409 1.39894C241.569 2.43362 243.326 4.07059 244.435 6.08039C244.977 7.0854 245.353 8.16087 245.549 9.27029C245.765 10.4774 245.886 11.6977 245.911 12.9212C245.917 13.469 245.917 14.0575 245.917 14.6432C245.933 15.3686 245.933 16.0591 245.933 16.7553V57.2426C245.933 57.9454 245.933 58.6312 245.917 59.3227C245.917 59.9518 245.917 60.5281 245.909 61.1212C245.884 62.3229 245.766 63.5213 245.553 64.7069C245.359 65.8309 244.98 66.9206 244.429 67.9375C243.881 68.9288 243.167 69.8335 242.315 70.6182C241.465 71.4187 240.481 72.0866 239.403 72.5963C238.309 73.1109 237.139 73.4694 235.931 73.6599C234.644 73.8552 233.344 73.9607 232.04 73.9754C231.431 73.9886 230.792 73.9961 230.172 73.9961L227.916 74L16.2599 73.9961Z" fill="#2D2D2D"/>
<path id="Vector_2" d="M52.0415 37.5571C52.0818 34.4186 53.7215 31.5196 56.3861 29.8757C54.6975 27.4557 51.9706 25.9764 49.0279 25.884C45.932 25.558 42.9307 27.743 41.3531 27.743C39.7449 27.743 37.3159 25.9164 34.7003 25.9704C31.2589 26.082 28.1283 27.9978 26.4539 31.017C22.8883 37.2116 25.5479 46.3155 28.9635 51.3227C30.6723 53.7746 32.6695 56.5135 35.2828 56.4163C37.84 56.3099 38.7951 54.78 41.8818 54.78C44.94 54.78 45.836 56.4163 48.5023 56.3546C51.2463 56.3099 52.9752 53.8918 54.6241 51.4167C55.8519 49.6696 56.7967 47.7387 57.4235 45.6955C54.1645 44.3123 52.0453 41.1079 52.0415 37.5571ZM47.0054 22.5909C48.5016 20.7887 49.2387 18.4721 49.0602 16.1333C46.7744 16.3742 44.6629 17.4704 43.1466 19.2036C41.6492 20.9136 40.8907 23.1507 41.038 25.4222C43.3544 25.4461 45.5539 24.4026 47.0054 22.5909Z" fill="white"/>
<path id="Vector_3" d="M90.5889 30.5522H81.8623L79.7666 36.7616H76.0703L84.336 13.7883H88.1763L96.4421 36.7616H92.6828L90.5889 30.5522ZM82.7661 27.6869H89.6834L86.2734 17.6094H86.1779L82.7661 27.6869ZM114.293 28.3878C114.293 33.5928 111.517 36.9369 107.327 36.9369C105.162 37.0505 103.122 35.9124 102.076 34.0065H101.996V42.3026H98.5701V20.0123H101.887V22.7981H101.95C103.042 20.9042 105.085 19.7665 107.264 19.837C111.501 19.837 114.293 23.1974 114.293 28.3878ZM110.772 28.3878C110.772 24.9968 109.025 22.7674 106.361 22.7674C103.743 22.7674 101.982 25.0438 101.982 28.3878C101.982 31.7627 103.743 34.0228 106.361 34.0228C109.025 34.0228 110.772 31.8096 110.772 28.3878ZM132.665 28.3878C132.665 33.5928 129.888 36.9369 125.699 36.9369C123.533 37.0505 121.494 35.9124 120.447 34.0065H120.368V42.3026H116.942V20.0123H120.258V22.7981H120.321C121.414 20.9042 123.456 19.7665 125.636 19.837C129.872 19.837 132.665 23.1974 132.665 28.3878ZM129.143 28.3878C129.143 24.9968 127.397 22.7674 124.732 22.7674C122.114 22.7674 120.353 25.0438 120.353 28.3878C120.353 31.7627 122.114 34.0228 124.732 34.0228C127.397 34.0228 129.143 31.8096 129.143 28.3878ZM144.807 30.3607C145.061 32.6389 147.266 34.1347 150.28 34.1347C153.168 34.1347 155.246 32.6388 155.246 30.5846C155.246 28.8015 153.993 27.7338 151.025 27.0021L148.058 26.2848C143.854 25.2659 141.903 23.293 141.903 20.0917C141.903 16.1279 145.345 13.4053 150.233 13.4053C155.071 13.4053 158.387 16.1279 158.499 20.0917H155.04C154.833 17.799 152.945 16.4151 150.185 16.4151C147.425 16.4151 145.536 17.8153 145.536 19.8532C145.536 21.4774 146.742 22.4331 149.693 23.1647L152.215 23.7862C156.913 24.9009 158.864 26.7943 158.864 30.1546C158.864 34.4526 155.453 37.1445 150.026 37.1445C144.949 37.1445 141.521 34.5158 141.299 30.3605L144.807 30.3607ZM166.259 16.0485V20.0123H169.433V22.7349H166.259V31.9686C166.259 33.4031 166.894 34.0715 168.29 34.0715C168.666 34.0649 169.043 34.0384 169.417 33.992V36.6983C168.789 36.8159 168.152 36.8692 167.514 36.8573C164.134 36.8573 162.816 35.5836 162.816 32.3353V22.7349H160.389V20.0123H162.816V16.0485H166.259ZM171.271 28.3878C171.271 23.1179 174.364 19.8063 179.188 19.8063C184.027 19.8063 187.106 23.1178 187.106 28.3878C187.106 33.6723 184.043 36.9694 179.188 36.9694C174.334 36.9694 171.271 33.6723 171.271 28.3878ZM183.615 28.3878C183.615 24.7728 181.964 22.6391 179.188 22.6391C176.411 22.6391 174.762 24.789 174.762 28.3878C174.762 32.0174 176.411 34.1348 179.188 34.1348C181.964 34.1348 183.615 32.0174 183.615 28.3878ZM189.931 20.0123H193.198V22.8631H193.278C193.733 21.0279 195.409 19.7648 197.293 19.837C197.688 19.8356 198.081 19.8786 198.467 19.9653V23.1811C197.968 23.0282 197.448 22.9581 196.927 22.9733C195.92 22.9323 194.945 23.3351 194.259 24.076C193.572 24.8169 193.243 25.8218 193.357 26.8269V36.7616H189.931V20.0123ZM214.263 31.8421C213.802 34.8827 210.852 36.9694 207.076 36.9694C202.22 36.9694 199.206 33.7048 199.206 28.4673C199.206 23.2136 202.237 19.8063 206.932 19.8063C211.55 19.8063 214.454 22.9896 214.454 28.0681V29.246H202.665V29.4537C202.555 30.7007 202.984 31.935 203.843 32.8427C204.702 33.7504 205.909 34.244 207.155 34.198C208.818 34.3543 210.386 33.3963 211.01 31.8421L214.263 31.8421ZM202.681 26.8432H211.026C211.088 25.7227 210.682 24.627 209.905 23.82C209.128 23.0131 208.05 22.568 206.932 22.5921C205.805 22.5854 204.722 23.0306 203.924 23.8289C203.126 24.6272 202.678 25.7123 202.681 26.8432Z" fill="white"/>
<path id="Vector_4" d="M76.2188 47.1302H91.9851V48.7846H84.4904V51.1245C85.5644 51.6235 86.6454 52.1736 87.7332 52.7748C88.8207 53.3753 89.9209 54.0199 91.0338 54.7088L90.0629 56.2286C88.9176 55.4956 87.8886 54.8496 86.9759 54.2905C86.0628 53.7314 85.2342 53.2669 84.4903 52.897V62.6684H82.8199V48.7847H76.2188V47.1302ZM96.4475 47.3042H99.486V46.3704H101.098V47.3042H104.039V48.6294H101.098V49.584H105.273C105.234 49.0912 105.214 48.5749 105.214 48.0352V46.3704H106.788C106.788 46.9419 106.794 47.4989 106.806 48.0454C106.82 48.59 106.839 49.1028 106.865 49.5839H111.117V50.9775H106.923C106.962 51.9652 107.022 52.8369 107.102 53.5927C107.184 54.3506 107.276 55.007 107.38 55.566C107.406 55.742 107.433 55.8994 107.463 56.0382C107.491 56.179 107.526 56.3198 107.564 56.4626C107.864 55.7648 108.125 55.0507 108.346 54.3237C108.588 53.5192 108.784 52.7013 108.933 51.8741L110.36 52.516C109.941 54.6755 109.205 56.7606 108.176 58.7032C108.275 58.9814 108.388 59.2544 108.515 59.5211C108.884 60.3203 109.195 60.72 109.448 60.72C109.648 60.72 109.855 59.8137 110.069 58.0012L111.438 58.7611C111.03 61.3267 110.441 62.6098 109.671 62.6105C109.101 62.6105 108.451 62.0714 107.719 60.9933C107.522 60.7314 107.361 60.4428 107.244 60.136C106.636 60.9337 105.897 61.622 105.06 62.1715L104.302 61.101H101.04V62.5898H99.486V61.101H95.5158V59.7365H99.486V58.9766H96.3886V53.833H99.486V53.131H95.7481V51.8742H99.486V51.2013H101.04V51.8742H104.758V53.1311H101.04V53.833H104.204V58.9766H101.04V59.7365H104.739V60.4571C105.443 59.8758 106.047 59.1809 106.525 58.4009C106.409 58.0447 106.307 57.672 106.219 57.2869C106.132 56.8997 106.042 56.4856 105.952 56.0445C105.612 54.3747 105.404 52.6804 105.331 50.9776H95.3507V49.5841H99.486V48.6295H96.4475V47.3042ZM97.7774 55.8498H99.6026V54.9718H97.7774V55.8498ZM99.6026 57.8065V56.881H97.7774V57.8065H99.6026ZM100.962 54.9718V55.8498H102.788V54.9718H100.962ZM102.788 57.8065V56.881H100.962V57.8065H102.788ZM107.457 47.1675L108.632 46.4076C109.324 47.1094 109.951 47.8724 110.506 48.6874L109.292 49.5654C109.066 49.2009 108.804 48.822 108.506 48.4244C108.207 48.029 107.858 47.61 107.457 47.1675Z" fill="white"/>
</g>
</g>
<defs>
<clipPath id="clip0_4646_64549">
<rect width="245.433" height="74" fill="white" transform="translate(0.5)"/>
</clipPath>
</defs>
</svg>
