<svg width="246" height="74" viewBox="0 0 246 74" fill="none" xmlns="http://www.w3.org/2000/svg">
<g id="android_badge_ch.f631b001966f31d8e4c37c2e3c0c9f29" clip-path="url(#clip0_4646_64531)">
<g id="Group">
<path id="Vector" d="M233.977 0H11.5891C5.22529 0 0.0664062 5.17671 0.0664062 11.5625V62.4375C0.0664062 68.8233 5.22529 74 11.5891 74H233.977C240.341 74 245.5 68.8233 245.5 62.4375V11.5625C245.5 5.17671 240.341 0 233.977 0Z" fill="#2D2D2D"/>
<g id="Group_2">
<path id="Vector_2" fill-rule="evenodd" clip-rule="evenodd" d="M190.257 36.3891H193.487V14.6606H190.257V36.3891ZM219.367 22.4875L215.664 31.9082H215.551L211.708 22.4875H208.226L213.992 35.6539L210.705 42.9784H214.075L222.963 22.4875H219.367ZM201.036 33.921C199.979 33.921 198.503 33.3891 198.503 32.0751C198.503 30.3995 200.341 29.7546 201.93 29.7546C203.348 29.7546 204.019 30.064 204.881 30.4812C204.632 32.4957 202.905 33.921 201.036 33.921ZM201.427 22.0112C199.087 22.0112 196.664 23.0472 195.661 25.338L198.529 26.5408C199.144 25.338 200.286 24.9469 201.483 24.9469C203.154 24.9469 204.855 25.9533 204.881 27.7419V27.9661C204.296 27.6306 203.043 27.1283 201.51 27.1283C198.419 27.1283 195.269 28.8334 195.269 32.0194C195.269 34.9273 197.805 36.8011 200.648 36.8011C202.82 36.8011 204.019 35.8225 204.77 34.6753H204.881V36.3526H208.003V28.0217C208.003 24.1648 205.132 22.0112 201.427 22.0112ZM181.454 25.1329H176.855V17.685H181.454C183.868 17.685 185.24 19.6908 185.24 21.4081C185.24 23.0924 183.868 25.1329 181.454 25.1329ZM181.369 14.6589H173.624V36.3891H176.855V28.1573H181.369C184.951 28.1573 188.474 25.5553 188.474 21.4081C188.474 17.2626 184.951 14.6589 181.369 14.6589ZM139.137 33.9244C136.904 33.9244 135.035 32.049 135.035 29.4731C135.035 26.8676 136.904 24.9643 139.137 24.9643C141.342 24.9643 143.073 26.8676 143.073 29.4731C143.073 32.049 141.342 33.9244 139.137 33.9244ZM142.849 23.7042H142.737C142.011 22.8368 140.616 22.0512 138.858 22.0512C135.174 22.0512 131.798 25.3015 131.798 29.4731C131.798 33.6168 135.174 36.8376 138.858 36.8376C140.616 36.8376 142.011 36.0537 142.737 35.1568H142.849V36.2205C142.849 39.0502 141.342 40.5607 138.914 40.5607C136.934 40.5607 135.706 39.1336 135.203 37.9291L132.385 39.1058C133.192 41.0647 135.342 43.4738 138.914 43.4738C142.711 43.4738 145.919 41.2333 145.919 35.7721V22.4996H142.849V23.7042ZM148.151 36.3891H151.387V14.6606H148.151V36.3891ZM156.159 29.221C156.076 26.3635 158.366 24.9087 160.011 24.9087C161.295 24.9087 162.383 25.5536 162.747 26.4765L156.159 29.221ZM166.206 26.7564C165.592 25.1051 163.722 22.0512 159.899 22.0512C156.104 22.0512 152.951 25.0478 152.951 29.4453C152.951 33.589 156.076 36.8376 160.261 36.8376C163.639 36.8376 165.592 34.7657 166.401 33.5612L163.89 31.8804C163.053 33.1127 161.91 33.9244 160.261 33.9244C158.615 33.9244 157.443 33.1683 156.691 31.684L166.54 27.5959L166.206 26.7564ZM87.7251 24.3212V27.4568H95.2046C94.9811 29.221 94.3956 30.509 93.5019 31.4041C92.4123 32.4974 90.7114 33.702 87.7251 33.702C83.121 33.702 79.5216 29.9771 79.5216 25.3571C79.5216 20.7372 83.121 17.0106 87.7251 17.0106C90.209 17.0106 92.0226 17.9909 93.3615 19.2528L95.5666 17.0402C93.6976 15.2481 91.2137 13.875 87.7251 13.875C81.4183 13.875 76.1162 19.0286 76.1162 25.3571C76.1162 31.684 81.4183 36.8376 87.7251 36.8376C91.1288 36.8376 93.6976 35.7165 95.7052 33.6168C97.7716 31.5449 98.4125 28.6335 98.4125 26.2801C98.4125 25.5536 98.3571 24.8809 98.2462 24.3212H87.7251ZM106.916 33.9244C104.683 33.9244 102.757 32.0768 102.757 29.4453C102.757 26.7842 104.683 24.9643 106.916 24.9643C109.148 24.9643 111.073 26.7842 111.073 29.4453C111.073 32.0768 109.148 33.9244 106.916 33.9244ZM106.916 22.0512C102.842 22.0512 99.5211 25.1607 99.5211 29.4453C99.5211 33.702 102.842 36.8376 106.916 36.8376C110.99 36.8376 114.31 33.702 114.31 29.4453C114.31 25.1607 110.99 22.0512 106.916 22.0512ZM123.047 33.9244C120.814 33.9244 118.89 32.0768 118.89 29.4453C118.89 26.7842 120.814 24.9643 123.047 24.9643C125.28 24.9643 127.204 26.7842 127.204 29.4453C127.204 32.0768 125.28 33.9244 123.047 33.9244ZM123.047 22.0512C118.973 22.0512 115.653 25.1607 115.653 29.4453C115.653 33.702 118.973 36.8376 123.047 36.8376C127.123 36.8376 130.444 33.702 130.444 29.4453C130.444 25.1607 127.123 22.0512 123.047 22.0512Z" fill="white"/>
<g id="Group_3">
<path id="Vector_3" fill-rule="evenodd" clip-rule="evenodd" d="M87.8109 53.0691C87.7661 53.1753 87.6338 53.2655 87.445 53.2775C87.0072 55.2649 86.188 58.1979 85.5012 59.8528L84.6255 59.5964C85.2677 57.8814 86.0129 54.8582 86.3923 52.7526L87.8109 53.0691ZM80.1112 52.8728C80.872 54.9043 81.3974 57.4907 81.485 59.2197C81.3818 59.2197 81.2806 59.2357 80.4751 59.4461C80.4186 57.7452 79.8933 55.1287 79.1772 53.1132L80.1112 52.8728ZM89.5349 51.0537V52.0454H77.2041V51.0537H82.7692V47.9844L84.071 48.0765C84.0554 48.1807 83.9815 48.2568 83.7791 48.2849V51.0537H89.5349ZM76.6924 61.2812H89.9435V60.2735H76.6924V61.2812Z" fill="white"/>
<path id="Vector_4" fill-rule="evenodd" clip-rule="evenodd" d="M87.8108 53.0691C87.7661 53.1753 87.6338 53.2655 87.445 53.2775C87.0072 55.2649 86.188 58.1979 85.5012 59.8528L84.6255 59.5964C85.2677 57.8814 86.0129 54.8582 86.3923 52.7526L87.8108 53.0691ZM80.1112 52.8728C80.872 54.9043 81.3974 57.4907 81.485 59.2197C81.3818 59.2197 81.2806 59.2357 80.4751 59.4461C80.4186 57.7452 79.8933 55.1287 79.1772 53.1132L80.1112 52.8728ZM89.5349 51.0537V52.0454H77.2041V51.0537H82.7692V47.9844L84.071 48.0765C84.0554 48.1807 83.9815 48.2568 83.7791 48.2849V51.0537H89.5349ZM76.6924 61.2812H89.9435V60.2735H76.6924V61.2812Z" stroke="white" stroke-width="0.524167"/>
<path id="Vector_5" fill-rule="evenodd" clip-rule="evenodd" d="M104.347 49.1406V58.5665C104.347 59.8792 103.703 59.9096 101.563 59.9096C101.517 59.6195 101.352 59.1326 101.202 58.8424C101.697 58.8566 102.159 58.8729 102.504 58.8729C103.238 58.8729 103.328 58.8729 103.328 58.5523V50.1611H99.9597V62.4375H98.9407V49.1406H104.347ZM93.1178 55.2332H96.5896V53.1151H93.1178V55.2332ZM93.1178 52.1859H96.5896V50.1145H93.1178V52.1859ZM96.1269 59.0392C95.6763 58.386 95.1837 57.7306 94.6892 57.1829L95.4689 56.7406C96.5776 57.9741 97.7581 59.6337 98.2666 60.7475L97.4291 61.2486C97.2496 60.8388 96.9665 60.3356 96.6514 59.8183C94.8248 60.4107 92.9523 61.0052 91.7418 61.3703C91.7259 61.4921 91.6501 61.5692 91.5464 61.6138L91.0957 60.4107C91.4128 60.3356 91.7697 60.2443 92.1606 60.1368V49.1406H97.5348V56.1928H93.1178V59.8792L96.1269 59.0392Z" fill="white"/>
<path id="Vector_6" fill-rule="evenodd" clip-rule="evenodd" d="M104.347 49.1406V58.5665C104.347 59.8792 103.703 59.9096 101.563 59.9096C101.517 59.6195 101.352 59.1326 101.202 58.8424C101.697 58.8566 102.159 58.8729 102.504 58.8729C103.238 58.8729 103.328 58.8729 103.328 58.5523V50.1611H99.9597V62.4375H98.9407V49.1406H104.347ZM93.1178 55.2332H96.5896V53.1151H93.1178V55.2332ZM93.1178 52.1859H96.5896V50.1145H93.1178V52.1859ZM96.1269 59.0392C95.6763 58.3859 95.1837 57.7306 94.6892 57.1829L95.4689 56.7406C96.5776 57.9741 97.7581 59.6337 98.2666 60.7475L97.4291 61.2486C97.2496 60.8388 96.9665 60.3356 96.6514 59.8183C94.8248 60.4107 92.9523 61.0052 91.7418 61.3703C91.7259 61.4921 91.6501 61.5692 91.5464 61.6138L91.0957 60.4107C91.4128 60.3356 91.7697 60.2443 92.1606 60.1368V49.1406H97.5348V56.1928H93.1178V59.8792L96.1269 59.0392Z" stroke="white" stroke-width="0.524167"/>
<path id="Vector_7" fill-rule="evenodd" clip-rule="evenodd" d="M119.902 50.1398H113.666L113.505 50.1835V52.7797L113.578 52.6903C115.446 53.6139 117.858 55.0004 119.078 55.9559L118.388 56.8497C117.329 55.9837 115.27 54.7184 113.505 53.7629V61.8594H112.461V50.1398H106.651V49.1406H119.902V50.1398Z" fill="white"/>
<path id="Vector_8" fill-rule="evenodd" clip-rule="evenodd" d="M119.902 50.1398H113.666L113.505 50.1835V52.7797L113.578 52.6903C115.446 53.6139 117.858 55.0004 119.078 55.9559L118.388 56.8497C117.329 55.9837 115.27 54.7184 113.505 53.7629V61.8594H112.461V50.1398H106.651V49.1406H119.902V50.1398Z" stroke="white" stroke-width="0.524167"/>
<path id="Vector_9" fill-rule="evenodd" clip-rule="evenodd" d="M132.66 48.2207C133.456 48.8183 134.404 49.682 134.827 50.2797L134.073 50.8594C133.652 50.234 132.734 49.3385 131.939 48.7131L132.66 48.2207ZM126.01 58.0015H128.01V57.0762H126.01V58.0015ZM126.01 56.4646H128.01V55.5553H126.01V56.4646ZM123.256 58.0015H125.198V57.0762H123.256V58.0015ZM123.256 56.4646H125.198V55.5553H123.256V56.4646ZM130.959 52.2315C131.095 54.1257 131.335 55.869 131.682 57.2827C132.51 56.004 133.155 54.5724 133.636 53.0813L134.811 53.4089C134.767 53.5141 134.66 53.5717 134.494 53.5717C133.923 55.3329 133.097 57.0305 132.029 58.5197C132.524 59.9671 133.155 60.8626 133.923 60.8626C134.374 60.8626 134.554 60.1022 134.644 58.2377C134.857 58.4462 135.204 58.6865 135.458 58.7619C135.278 61.1307 134.917 61.8455 133.849 61.8455C132.75 61.8455 131.923 60.9361 131.305 59.4311C130.538 60.3702 129.65 61.1902 128.658 61.8455C128.491 61.6072 128.191 61.2935 127.92 61.0989C128.295 60.8626 128.672 60.5926 129.018 60.3106H126.054V61.8594H125.136V60.3106H121.811V59.5065H125.136V58.6249H122.473V54.9298H125.136V54.0641H122.052V53.2898H125.136V52.291L126.369 52.3824C126.355 52.4717 126.265 52.5452 126.07 52.573V53.2898H129.229V54.0641H126.07V54.9298H128.822V58.6249H126.054V59.5065H129.289V60.0883C129.874 59.5661 130.433 58.9684 130.931 58.3291C130.433 56.6751 130.131 54.5565 129.966 52.2315H121.631V51.3658H125.136V50.0712H122.308V49.2353H125.136V47.9844L126.415 48.0578C126.401 48.1631 126.325 48.2365 126.114 48.2663V49.2353H128.928V50.0712H126.114V51.3658H129.922C129.862 50.2797 129.816 49.1459 129.816 48.0142C130.824 48.0578 130.989 48.0737 131.139 48.0896C131.139 48.2068 131.049 48.2802 130.838 48.312C130.838 49.3544 130.854 50.369 130.898 51.3658H135.278V52.2315H130.959Z" fill="white"/>
<path id="Vector_10" fill-rule="evenodd" clip-rule="evenodd" d="M132.66 48.2207C133.456 48.8183 134.404 49.682 134.827 50.2797L134.073 50.8594C133.652 50.234 132.734 49.3385 131.939 48.7131L132.66 48.2207ZM126.01 58.0015H128.01V57.0762H126.01V58.0015ZM126.01 56.4646H128.01V55.5553H126.01V56.4646ZM123.256 58.0015H125.198V57.0762H123.256V58.0015ZM123.256 56.4646H125.198V55.5553H123.256V56.4646ZM130.959 52.2315C131.095 54.1257 131.335 55.869 131.682 57.2827C132.51 56.004 133.155 54.5724 133.636 53.0813L134.811 53.4089C134.767 53.5141 134.66 53.5717 134.494 53.5717C133.923 55.3329 133.097 57.0305 132.029 58.5197C132.524 59.9671 133.155 60.8626 133.923 60.8626C134.374 60.8626 134.554 60.1022 134.644 58.2377C134.857 58.4462 135.204 58.6865 135.458 58.7619C135.278 61.1307 134.917 61.8455 133.849 61.8455C132.75 61.8455 131.923 60.9361 131.305 59.4311C130.538 60.3702 129.65 61.1902 128.658 61.8455C128.491 61.6072 128.191 61.2935 127.92 61.0989C128.295 60.8626 128.672 60.5926 129.018 60.3106H126.054V61.8594H125.136V60.3106H121.811V59.5065H125.136V58.6249H122.473V54.9298H125.136V54.0641H122.052V53.2898H125.136V52.291L126.369 52.3824C126.355 52.4717 126.265 52.5452 126.07 52.573V53.2898H129.229V54.0641H126.07V54.9298H128.822V58.6249H126.054V59.5065H129.289V60.0883C129.874 59.5661 130.433 58.9684 130.931 58.3291C130.433 56.6751 130.131 54.5565 129.966 52.2315H121.631V51.3658H125.136V50.0712H122.308V49.2353H125.136V47.9844L126.415 48.0578C126.401 48.1631 126.325 48.2365 126.114 48.2663V49.2353H128.928V50.0712H126.114V51.3658H129.922C129.862 50.2797 129.816 49.1459 129.816 48.0142C130.824 48.0578 130.989 48.0737 131.139 48.0896C131.139 48.2068 131.049 48.2802 130.838 48.312C130.838 49.3544 130.854 50.369 130.898 51.3658H135.278V52.2315H130.959Z" stroke="white" stroke-width="0.524167"/>
</g>
</g>
<g id="Group_4">
<path id="Vector_11" fill-rule="evenodd" clip-rule="evenodd" d="M19.9241 14.0058C19.3919 14.5673 19.0791 15.437 19.0791 16.5656V56.8535C19.0791 57.9821 19.3919 58.8536 19.9241 59.4133L20.0594 59.5464L42.7006 36.9766V36.7104V36.4443L20.0594 13.8745L19.9241 14.0058Z" fill="white" stroke="#2D2D2D" stroke-width="2.62083"/>
<path id="Vector_12" fill-rule="evenodd" clip-rule="evenodd" d="M42.6123 36.7068V36.9694V37.232L50.1639 44.6567L50.3359 44.5613L59.284 39.563C60.5615 38.8507 61.2021 37.9101 61.2021 36.9694C61.2021 36.0287 60.5615 35.0881 59.284 34.3758L50.3359 29.3793L50.1657 29.2839L42.6123 36.7068Z" fill="white" stroke="#2D2D2D" stroke-width="2.62083"/>
<path id="Vector_13" fill-rule="evenodd" clip-rule="evenodd" d="M19.9033 59.4178C20.7443 60.2841 22.1336 60.3909 23.6985 59.5263L50.3817 44.7744L42.6671 37.2659L19.9033 59.4178ZM19.9033 14.0158L42.6671 37.2069L50.3817 29.348L23.6985 13.9022C22.9654 13.4776 22.2689 13.2783 21.651 13.2783C20.9508 13.2783 20.3494 13.5353 19.9033 14.0158Z" fill="white" stroke="#2D2D2D" stroke-width="2.62083"/>
</g>
</g>
</g>
<defs>
<clipPath id="clip0_4646_64531">
<rect width="245.433" height="74" fill="white" transform="translate(0.0664062)"/>
</clipPath>
</defs>
</svg>
