<svg width="24" height="24" viewBox="0 0 24 24" fill="none" xmlns="http://www.w3.org/2000/svg">
<g clip-path="url(#clip0_3877_2229)">
<path d="M16.1666 4.50037C16.3789 4.24956 16.6414 4.04542 16.9375 3.90094C17.2336 3.75646 17.5567 3.67481 17.8863 3.66121C18.216 3.64761 18.5448 3.70235 18.8519 3.82194C19.1591 3.94153 19.4378 4.12335 19.6702 4.3558C19.9027 4.58826 20.0838 4.86625 20.2021 5.17207C20.3203 5.47788 20.3732 5.80481 20.3571 6.13202C20.3411 6.45922 20.2566 6.77952 20.109 7.07251C19.9615 7.36549 19.754 7.62473 19.5 7.8337L8.24996 19.0837L3.66663 20.3337L4.91663 15.7504L16.1666 4.50037Z" stroke="currentColor" stroke-width="2" stroke-linecap="round" stroke-linejoin="round"/>
<path d="M14.5 6.16699L17.8333 9.50033" stroke="currentColor" stroke-width="2" stroke-linecap="round" stroke-linejoin="round"/>
</g>
<defs>
<clipPath id="clip0_3877_2229">
<rect width="20" height="20" fill="white" transform="translate(2 2)"/>
</clipPath>
</defs>
</svg>
