<svg width="21" height="20" viewBox="0 0 21 20" fill="none" xmlns="http://www.w3.org/2000/svg">
<path d="M10.0107 17.9541C9.80074 17.9541 9.58699 17.9166 9.36949 17.8416C9.15199 17.7666 8.96074 17.6466 8.79574 17.4816L7.24324 16.0641C5.65324 14.6091 4.21699 13.1654 2.93449 11.7329C1.65199 10.3004 1.01074 8.72163 1.01074 6.99663C1.01074 5.58663 1.48324 4.40913 2.42824 3.46413C3.37324 2.51913 4.55074 2.04663 5.96074 2.04663C6.75574 2.04663 7.50574 2.21538 8.21074 2.55288C8.91574 2.89038 9.51574 3.35163 10.0107 3.93663C10.5057 3.35163 11.1057 2.89038 11.8107 2.55288C12.5157 2.21538 13.2657 2.04663 14.0607 2.04663C15.4707 2.04663 16.6482 2.51913 17.5932 3.46413C18.5382 4.40913 19.0107 5.58663 19.0107 6.99663C19.0107 8.72163 18.3732 10.3041 17.0982 11.7441C15.8232 13.1841 14.3757 14.6316 12.7557 16.0866L11.2257 17.4816C11.0607 17.6466 10.8695 17.7666 10.652 17.8416C10.4345 17.9166 10.2207 17.9541 10.0107 17.9541Z" fill="#1C1B1F"/>
</svg>
