<svg width="21" height="20" viewBox="0 0 21 20" fill="none" xmlns="http://www.w3.org/2000/svg">
<path d="M10.01 17.9541C9.80001 17.9541 9.58626 17.9166 9.36876 17.8416C9.15126 17.7666 8.96001 17.6466 8.79501 17.4816L7.24251 16.0641C5.65251 14.6091 4.21626 13.1654 2.93376 11.7329C1.65126 10.3004 1.01001 8.72163 1.01001 6.99663C1.01001 5.58663 1.48251 4.40913 2.42751 3.46413C3.37251 2.51913 4.55001 2.04663 5.96001 2.04663C6.75501 2.04663 7.50501 2.21538 8.21001 2.55288C8.91501 2.89038 9.51501 3.35163 10.01 3.93663C10.505 3.35163 11.105 2.89038 11.81 2.55288C12.515 2.21538 13.265 2.04663 14.06 2.04663C15.47 2.04663 16.6475 2.51913 17.5925 3.46413C18.5375 4.40913 19.01 5.58663 19.01 6.99663C19.01 8.72163 18.3725 10.3041 17.0975 11.7441C15.8225 13.1841 14.375 14.6316 12.755 16.0866L11.225 17.4816C11.06 17.6466 10.8688 17.7666 10.6513 17.8416C10.4338 17.9166 10.22 17.9541 10.01 17.9541ZM9.15501 5.73663C8.72001 5.12163 8.25501 4.65288 7.76001 4.33038C7.26501 4.00788 6.66501 3.84663 5.96001 3.84663C5.06001 3.84663 4.31001 4.14663 3.71001 4.74663C3.11001 5.34663 2.81001 6.09663 2.81001 6.99663C2.81001 7.77663 3.08751 8.60538 3.64251 9.48288C4.19751 10.3604 4.86126 11.2116 5.63376 12.0366C6.40626 12.8616 7.20126 13.6341 8.01876 14.3541C8.83626 15.0741 9.50001 15.6666 10.01 16.1316C10.52 15.6666 11.1838 15.0741 12.0013 14.3541C12.8188 13.6341 13.6138 12.8616 14.3863 12.0366C15.1588 11.2116 15.8225 10.3604 16.3775 9.48288C16.9325 8.60538 17.21 7.77663 17.21 6.99663C17.21 6.09663 16.91 5.34663 16.31 4.74663C15.71 4.14663 14.96 3.84663 14.06 3.84663C13.355 3.84663 12.755 4.00788 12.26 4.33038C11.765 4.65288 11.3 5.12163 10.865 5.73663C10.76 5.88663 10.6325 5.99913 10.4825 6.07413C10.3325 6.14913 10.175 6.18663 10.01 6.18663C9.84501 6.18663 9.68751 6.14913 9.53751 6.07413C9.38751 5.99913 9.26001 5.88663 9.15501 5.73663Z" fill="currentColor"/>
<path d="M10.01 17.9541C9.80001 17.9541 9.58626 17.9166 9.36876 17.8416C9.15126 17.7666 8.96001 17.6466 8.79501 17.4816L7.24251 16.0641C5.65251 14.6091 4.21626 13.1654 2.93376 11.7329C1.65126 10.3004 1.01001 8.72163 1.01001 6.99663C1.01001 5.58663 1.48251 4.40913 2.42751 3.46413C3.37251 2.51913 4.55001 2.04663 5.96001 2.04663C6.75501 2.04663 7.50501 2.21538 8.21001 2.55288C8.91501 2.89038 9.51501 3.35163 10.01 3.93663C10.505 3.35163 11.105 2.89038 11.81 2.55288C12.515 2.21538 13.265 2.04663 14.06 2.04663C15.47 2.04663 16.6475 2.51913 17.5925 3.46413C18.5375 4.40913 19.01 5.58663 19.01 6.99663C19.01 8.72163 18.3725 10.3041 17.0975 11.7441C15.8225 13.1841 14.375 14.6316 12.755 16.0866L11.225 17.4816C11.06 17.6466 10.8688 17.7666 10.6513 17.8416C10.4338 17.9166 10.22 17.9541 10.01 17.9541ZM9.15501 5.73663C8.72001 5.12163 8.25501 4.65288 7.76001 4.33038C7.26501 4.00788 6.66501 3.84663 5.96001 3.84663C5.06001 3.84663 4.31001 4.14663 3.71001 4.74663C3.11001 5.34663 2.81001 6.09663 2.81001 6.99663C2.81001 7.77663 3.08751 8.60538 3.64251 9.48288C4.19751 10.3604 4.86126 11.2116 5.63376 12.0366C6.40626 12.8616 7.20126 13.6341 8.01876 14.3541C8.83626 15.0741 9.50001 15.6666 10.01 16.1316C10.52 15.6666 11.1838 15.0741 12.0013 14.3541C12.8188 13.6341 13.6138 12.8616 14.3863 12.0366C15.1588 11.2116 15.8225 10.3604 16.3775 9.48288C16.9325 8.60538 17.21 7.77663 17.21 6.99663C17.21 6.09663 16.91 5.34663 16.31 4.74663C15.71 4.14663 14.96 3.84663 14.06 3.84663C13.355 3.84663 12.755 4.00788 12.26 4.33038C11.765 4.65288 11.3 5.12163 10.865 5.73663C10.76 5.88663 10.6325 5.99913 10.4825 6.07413C10.3325 6.14913 10.175 6.18663 10.01 6.18663C9.84501 6.18663 9.68751 6.14913 9.53751 6.07413C9.38751 5.99913 9.26001 5.88663 9.15501 5.73663Z" fill="currentColor" fill-opacity="0.2"/>
<path d="M10.01 17.9541C9.80001 17.9541 9.58626 17.9166 9.36876 17.8416C9.15126 17.7666 8.96001 17.6466 8.79501 17.4816L7.24251 16.0641C5.65251 14.6091 4.21626 13.1654 2.93376 11.7329C1.65126 10.3004 1.01001 8.72163 1.01001 6.99663C1.01001 5.58663 1.48251 4.40913 2.42751 3.46413C3.37251 2.51913 4.55001 2.04663 5.96001 2.04663C6.75501 2.04663 7.50501 2.21538 8.21001 2.55288C8.91501 2.89038 9.51501 3.35163 10.01 3.93663C10.505 3.35163 11.105 2.89038 11.81 2.55288C12.515 2.21538 13.265 2.04663 14.06 2.04663C15.47 2.04663 16.6475 2.51913 17.5925 3.46413C18.5375 4.40913 19.01 5.58663 19.01 6.99663C19.01 8.72163 18.3725 10.3041 17.0975 11.7441C15.8225 13.1841 14.375 14.6316 12.755 16.0866L11.225 17.4816C11.06 17.6466 10.8688 17.7666 10.6513 17.8416C10.4338 17.9166 10.22 17.9541 10.01 17.9541ZM9.15501 5.73663C8.72001 5.12163 8.25501 4.65288 7.76001 4.33038C7.26501 4.00788 6.66501 3.84663 5.96001 3.84663C5.06001 3.84663 4.31001 4.14663 3.71001 4.74663C3.11001 5.34663 2.81001 6.09663 2.81001 6.99663C2.81001 7.77663 3.08751 8.60538 3.64251 9.48288C4.19751 10.3604 4.86126 11.2116 5.63376 12.0366C6.40626 12.8616 7.20126 13.6341 8.01876 14.3541C8.83626 15.0741 9.50001 15.6666 10.01 16.1316C10.52 15.6666 11.1838 15.0741 12.0013 14.3541C12.8188 13.6341 13.6138 12.8616 14.3863 12.0366C15.1588 11.2116 15.8225 10.3604 16.3775 9.48288C16.9325 8.60538 17.21 7.77663 17.21 6.99663C17.21 6.09663 16.91 5.34663 16.31 4.74663C15.71 4.14663 14.96 3.84663 14.06 3.84663C13.355 3.84663 12.755 4.00788 12.26 4.33038C11.765 4.65288 11.3 5.12163 10.865 5.73663C10.76 5.88663 10.6325 5.99913 10.4825 6.07413C10.3325 6.14913 10.175 6.18663 10.01 6.18663C9.84501 6.18663 9.68751 6.14913 9.53751 6.07413C9.38751 5.99913 9.26001 5.88663 9.15501 5.73663Z" fill="currentColor" fill-opacity="0.2"/>
</svg>
