<svg width="24" height="24" viewBox="0 0 24 24" fill="none" xmlns="http://www.w3.org/2000/svg">
<path d="M12.0001 21.325C13.2501 20.1417 14.2293 19.0042 14.9376 17.9125C15.646 16.8208 16.0001 15.9 16.0001 15.15C16.0001 14 15.6126 13.0208 14.8376 12.2125C14.0626 11.4042 13.1168 11 12.0001 11C10.8835 11 9.93762 11.4042 9.16262 12.2125C8.38762 13.0208 8.00012 14 8.00012 15.15C8.00012 15.9 8.35428 16.8208 9.06262 17.9125C9.77095 19.0042 10.7501 20.1417 12.0001 21.325ZM12.0001 9C13.6835 9 15.1043 9.6 16.2626 10.8C17.4209 12 18.0001 13.45 18.0001 15.15C18.0001 15.7167 17.8918 16.3083 17.6751 16.925C17.4584 17.5417 17.1376 18.1875 16.7126 18.8625C16.2876 19.5375 15.7668 20.2292 15.1501 20.9375C14.5335 21.6458 13.8168 22.375 13.0001 23.125C12.8668 23.2583 12.7126 23.3542 12.5376 23.4125C12.3626 23.4708 12.1835 23.5 12.0001 23.5C11.8168 23.5 11.6376 23.4708 11.4626 23.4125C11.2876 23.3542 11.1334 23.2583 11.0001 23.125C10.1834 22.375 9.46678 21.6458 8.85012 20.9375C8.23345 20.2292 7.71262 19.5375 7.28762 18.8625C6.86262 18.1875 6.54178 17.5417 6.32512 16.925C6.10845 16.3083 6.00012 15.7167 6.00012 15.15C6.00012 13.45 6.57928 12 7.73762 10.8C8.89595 9.6 10.3168 9 12.0001 9ZM12.0001 16.5C12.4168 16.5 12.771 16.3542 13.0626 16.0625C13.3543 15.7708 13.5001 15.4167 13.5001 15C13.5001 14.5833 13.3543 14.2292 13.0626 13.9375C12.771 13.6458 12.4168 13.5 12.0001 13.5C11.5835 13.5 11.2293 13.6458 10.9376 13.9375C10.6459 14.2292 10.5001 14.5833 10.5001 15C10.5001 15.4167 10.6459 15.7708 10.9376 16.0625C11.2293 16.3542 11.5835 16.5 12.0001 16.5ZM12.0001 6C11.5001 6 11.0168 6.06667 10.5501 6.2C10.0834 6.33333 9.64178 6.54167 9.22512 6.825C8.99178 6.975 8.73345 7.04583 8.45012 7.0375C8.16678 7.02917 7.93345 6.93333 7.75012 6.75C7.55012 6.55 7.45428 6.31667 7.46262 6.05C7.47095 5.78333 7.58345 5.56667 7.80012 5.4C8.40012 4.95 9.05845 4.60417 9.77512 4.3625C10.4918 4.12083 11.2335 4 12.0001 4C12.7668 4 13.5085 4.12083 14.2251 4.3625C14.9418 4.60417 15.6001 4.95 16.2001 5.4C16.4168 5.56667 16.5293 5.78333 16.5376 6.05C16.5459 6.31667 16.4501 6.55 16.2501 6.75C16.0668 6.93333 15.8335 7.02917 15.5501 7.0375C15.2668 7.04583 15.0085 6.975 14.7751 6.825C14.3584 6.54167 13.9168 6.33333 13.4501 6.2C12.9834 6.06667 12.5001 6 12.0001 6ZM12.0001 2C10.9668 2 9.97512 2.16667 9.02512 2.5C8.07512 2.83333 7.20012 3.31667 6.40012 3.95C6.18345 4.13333 5.93345 4.22083 5.65012 4.2125C5.36678 4.20417 5.12512 4.10833 4.92512 3.925C4.72512 3.725 4.63345 3.4875 4.65012 3.2125C4.66678 2.9375 4.78345 2.70833 5.00012 2.525C5.98345 1.70833 7.07095 1.08333 8.26262 0.65C9.45428 0.216667 10.7001 0 12.0001 0C13.3001 0 14.5459 0.216667 15.7376 0.65C16.9293 1.08333 18.0168 1.70833 19.0001 2.525C19.2168 2.70833 19.3334 2.94167 19.3501 3.225C19.3668 3.50833 19.2751 3.75 19.0751 3.95C18.8918 4.15 18.6584 4.25 18.3751 4.25C18.0918 4.25 17.8418 4.15833 17.6251 3.975C16.8251 3.34167 15.946 2.85417 14.9876 2.5125C14.0293 2.17083 13.0335 2 12.0001 2Z" fill="currentColor"/>

</svg>
