<svg width="45" height="45" viewBox="0 0 45 45" fill="none" xmlns="http://www.w3.org/2000/svg">
<g clip-path="url(#clip0_930_21841)">
<g filter="url(#filter0_d_930_21841)">
<path d="M37.4723 18.757C37.4723 29.9861 22.5001 41.2153 22.5001 41.2153C22.5001 41.2153 7.52783 29.9861 7.52783 18.757C7.52783 14.7861 9.10526 10.9778 11.9131 8.16999C14.7209 5.36216 18.5292 3.78473 22.5001 3.78473C26.4709 3.78473 30.2792 5.36216 33.087 8.16999C35.8949 10.9778 37.4723 14.7861 37.4723 18.757Z" fill="#1FDDC7"/>
<path d="M37.4723 18.757C37.4723 29.9861 22.5001 41.2153 22.5001 41.2153C22.5001 41.2153 7.52783 29.9861 7.52783 18.757C7.52783 14.7861 9.10526 10.9778 11.9131 8.16999C14.7209 5.36216 18.5292 3.78473 22.5001 3.78473C26.4709 3.78473 30.2792 5.36216 33.087 8.16999C35.8949 10.9778 37.4723 14.7861 37.4723 18.757Z" stroke="white" stroke-width="2" stroke-linecap="round" stroke-linejoin="round"/>
</g>
<path d="M22.4998 24.3716C25.6007 24.3716 28.1144 21.8578 28.1144 18.757C28.1144 15.6561 25.6007 13.1424 22.4998 13.1424C19.399 13.1424 16.8853 15.6561 16.8853 18.757C16.8853 21.8578 19.399 24.3716 22.4998 24.3716Z" fill="white"/>
</g>
<defs>
<filter id="filter0_d_930_21841" x="-11.4722" y="-11.2153" width="67.9443" height="75.4305" filterUnits="userSpaceOnUse" color-interpolation-filters="sRGB">
<feFlood flood-opacity="0" result="BackgroundImageFix"/>
<feColorMatrix in="SourceAlpha" type="matrix" values="0 0 0 0 0 0 0 0 0 0 0 0 0 0 0 0 0 0 127 0" result="hardAlpha"/>
<feMorphology radius="2" operator="dilate" in="SourceAlpha" result="effect1_dropShadow_930_21841"/>
<feOffset dy="4"/>
<feGaussianBlur stdDeviation="8"/>
<feColorMatrix type="matrix" values="0 0 0 0 0 0 0 0 0 0 0 0 0 0 0 0 0 0 0.04 0"/>
<feBlend mode="normal" in2="BackgroundImageFix" result="effect1_dropShadow_930_21841"/>
<feBlend mode="normal" in="SourceGraphic" in2="effect1_dropShadow_930_21841" result="shape"/>
</filter>
<clipPath id="clip0_930_21841">
<rect width="44.9167" height="44.9167" fill="white" transform="translate(0.0415039 0.041687)"/>
</clipPath>
</defs>
</svg>
