<svg width="24" height="24" viewBox="0 0 24 24" fill="none" xmlns="http://www.w3.org/2000/svg">
<path d="M18.4 11.1001H5.8C4.80589 11.1001 4 11.906 4 12.9001V19.2001C4 20.1942 4.80589 21.0001 5.8 21.0001H18.4C19.3941 21.0001 20.2 20.1942 20.2 19.2001V12.9001C20.2 11.906 19.3941 11.1001 18.4 11.1001Z" stroke="currentColor" stroke-width="2" stroke-linecap="round" stroke-linejoin="round"/>
<path d="M7.6001 11.1V7.5C7.6001 6.30653 8.0742 5.16193 8.91812 4.31802C9.76203 3.47411 10.9066 3 12.1001 3C13.2936 3 14.4382 3.47411 15.2821 4.31802C16.126 5.16193 16.6001 6.30653 16.6001 7.5V11.1" stroke="currentColor" stroke-width="2" stroke-linecap="round" stroke-linejoin="round"/>
</svg>
