<svg width="170" height="40" viewBox="0 0 170 40" fill="none" xmlns="http://www.w3.org/2000/svg">
<g id="TeamUp_Logo-33" clip-path="url(#clip0_723_4589)">
<path id="Vector" d="M44.8537 10.858C43.234 9.99166 41.3682 9.55762 39.2544 9.55762C37.1407 9.55762 35.1916 10.0189 33.4905 10.9397C31.7876 11.8623 30.4497 13.1202 29.4769 14.7168C28.5024 16.3134 28.0151 18.1431 28.0151 20.2061C28.0151 22.2691 28.516 24.1483 29.5177 25.7568C30.5194 27.367 31.9115 28.618 33.6959 29.5134C35.4803 30.407 37.5516 30.8546 39.9132 30.8546C41.7519 30.8546 43.3851 30.5653 44.813 29.9883C46.2391 29.4095 47.4615 28.5431 48.4768 27.3874L44.4428 23.384C43.8384 24.0717 43.1729 24.5738 42.4462 24.8904C41.7196 25.207 40.8741 25.3653 39.9149 25.3653C38.9556 25.3653 38.1033 25.1729 37.4446 24.7866C36.7859 24.4019 36.285 23.8317 35.9421 23.0742C35.8928 22.9653 35.8487 22.8512 35.8062 22.7355L49.7127 22.6419C49.8503 22.0376 49.9385 21.5066 49.981 21.0521C50.0217 20.5976 50.0421 20.1653 50.0421 19.7517C50.0421 17.7704 49.582 16.0104 48.6635 14.4683C47.7433 12.9278 46.4751 11.7227 44.8554 10.8563L44.8537 10.858ZM37.2782 15.6666C37.8809 15.2529 38.5957 15.047 39.4191 15.047C40.2425 15.047 40.8741 15.2257 41.3953 15.5831C41.9165 15.9406 42.307 16.47 42.5685 17.1712C42.6313 17.3414 42.6873 17.5253 42.7349 17.7193L35.7757 17.7755C35.8147 17.6597 35.8538 17.5474 35.8996 17.4385C36.2154 16.6691 36.6755 16.0768 37.2782 15.6631V15.6666Z" fill="white"/>
<path id="Vector_2" d="M65.8484 11.1587C65.356 10.791 64.7991 10.4846 64.1811 10.2378C63.1795 9.83952 62.0878 9.63867 60.9078 9.63867C59.0148 9.63867 57.3391 10.0863 55.8858 10.9799C54.4308 11.8753 53.2916 13.1195 52.4682 14.7144C51.6448 16.311 51.2339 18.1408 51.2339 20.2038C51.2339 22.2668 51.6448 24.0914 52.4682 25.6727C53.2916 27.2557 54.4308 28.4999 55.8858 29.4072C57.3408 30.3144 59.0148 30.7689 60.9078 30.7689C62.0878 30.7689 63.1778 30.5697 64.1811 30.1697C64.7991 29.9229 65.356 29.6165 65.8484 29.2489V30.3553H73.7108V10.0523H65.8484V11.1587ZM62.7194 23.6727C62.0878 23.6727 61.5122 23.5212 60.991 23.2182C60.4698 22.9153 60.064 22.5034 59.7771 21.9808C59.4885 21.4582 59.3442 20.8659 59.3442 20.2055C59.3442 19.5451 59.4953 18.9544 59.7975 18.4302C60.0997 17.9076 60.5038 17.4957 61.0114 17.1927C61.519 16.8897 62.1031 16.7382 62.7601 16.7382C63.4171 16.7382 64.0012 16.8897 64.5105 17.1927C65.0181 17.4957 65.4086 17.9008 65.6837 18.4097C65.957 18.9187 66.0962 19.5178 66.0962 20.2055C66.0962 21.2234 65.7872 22.0557 65.1692 22.7025C64.5513 23.3493 63.7346 23.6727 62.7194 23.6727Z" fill="white"/>
<path id="Vector_3" d="M105.546 10.6721C104.296 9.98446 102.863 9.64062 101.243 9.64062C99.5151 9.64062 97.9769 10.0049 96.6323 10.7351C96.0347 11.0602 95.4982 11.45 95.016 11.8993C94.5542 11.4057 94.0296 10.9819 93.4405 10.633C92.3284 9.97254 91.0873 9.64233 89.7155 9.64233C88.1519 9.64233 86.7512 9.95892 85.5169 10.5921C85.1978 10.7555 84.8972 10.9393 84.612 11.1385V10.0559H76.5425V30.3623H84.612V18.7232C84.612 18.2551 84.7003 17.8568 84.8803 17.5266C85.0585 17.1964 85.3183 16.9428 85.6629 16.7623C86.0059 16.5836 86.3964 16.4934 86.8361 16.4934C87.4677 16.4934 87.9889 16.6925 88.3998 17.0925C88.8123 17.4908 89.0178 18.0355 89.0178 18.7232V30.3623H97.0873V18.7232C97.0873 18.2551 97.1756 17.8568 97.3555 17.5266C97.5338 17.1964 97.7936 16.9428 98.1382 16.7623C98.4812 16.5836 98.8717 16.4934 99.3114 16.4934C99.943 16.4934 100.464 16.6925 100.875 17.0925C101.288 17.4908 101.493 18.0355 101.493 18.7232V30.3623H109.563V18.3113C109.563 16.4951 109.206 14.9411 108.493 13.6474C107.778 12.3538 106.799 11.3632 105.549 10.6755L105.546 10.6721Z" fill="white"/>
<path id="Vector_4" d="M135.603 19.2153C135.603 20.1515 135.412 20.943 135.026 21.5881C134.641 22.2349 134.113 22.7302 133.44 23.0741C132.768 23.4179 131.992 23.5898 131.114 23.5898C130.237 23.5898 129.488 23.4179 128.788 23.0741C128.089 22.7302 127.532 22.2281 127.121 21.5677C126.71 20.9072 126.503 20.109 126.503 19.1745V0.973633H118.269V18.4324C118.269 20.8545 118.804 23.0009 119.875 24.8715C120.945 26.7421 122.44 28.2077 124.362 29.2664C126.283 30.3268 128.534 30.8562 131.114 30.8562C133.695 30.8562 135.938 30.3268 137.846 29.2664C139.753 28.2077 141.235 26.749 142.293 24.8919C143.349 23.0349 143.877 20.8953 143.877 18.4732V0.973633H135.602V19.217L135.603 19.2153Z" fill="white"/>
<path id="Vector_5" d="M168.097 14.7164C167.26 13.1215 166.094 11.8755 164.598 10.9819C163.102 10.0883 161.352 9.64062 159.348 9.64062C158.141 9.64062 157.002 9.87382 155.931 10.3419C155.583 10.4934 155.255 10.6636 154.943 10.8491V10.0525H146.873V39.0262H154.735V29.6236C155.107 29.8313 155.505 30.0151 155.929 30.1734C156.999 30.5717 158.138 30.7725 159.347 30.7725C161.35 30.7725 163.099 30.3181 164.596 29.4108C166.092 28.5036 167.258 27.2576 168.095 25.6764C168.932 24.0951 169.352 22.2721 169.352 20.2074C169.352 18.1428 168.932 16.3147 168.095 14.7181L168.097 14.7164ZM160.81 21.9811C160.521 22.5036 160.117 22.9172 159.596 23.2185C159.075 23.5215 158.484 23.673 157.825 23.673C157.167 23.673 156.583 23.5215 156.075 23.2185C155.567 22.9155 155.175 22.5036 154.902 21.9811C154.627 21.4585 154.489 20.8662 154.489 20.2057C154.489 19.5453 154.634 18.9121 154.922 18.3896C155.211 17.867 155.608 17.4602 156.116 17.1725C156.623 16.8832 157.207 16.7385 157.866 16.7385C158.525 16.7385 159.107 16.89 159.615 17.193C160.123 17.4959 160.52 17.9011 160.808 18.41C161.097 18.9189 161.241 19.5181 161.241 20.2057C161.241 20.8934 161.097 21.4585 160.808 21.9811H160.81Z" fill="white"/>
<path id="Vector_6" d="M13.3563 1.00977H0.424316V10.7851H0.675588L10.1747 3.46083L13.3563 1.00977Z" fill="white"/>
<path id="Vector_7" d="M29.6755 1.00977H19.9251C14.5415 1.00977 10.1748 5.38764 10.1748 10.7851V30.3357C15.5585 30.3357 19.9251 25.9578 19.9251 20.5604V10.7851H29.6755V1.00977Z" fill="white"/>
</g>
<defs>
<clipPath id="clip0_723_4589">
<rect width="169.778" height="40" fill="white"/>
</clipPath>
</defs>
</svg>
