<svg width="171" height="40" viewBox="0 0 171 40" fill="none" xmlns="http://www.w3.org/2000/svg">
<g id="TeamUp_Logo-36 1">
<path id="Vector" d="M44.9686 10.858C43.3448 9.99166 41.4742 9.55762 39.355 9.55762C37.2359 9.55762 35.2818 10.0189 33.5763 10.9397C31.869 11.8623 30.5278 13.1202 29.5524 14.7168C28.5754 16.3134 28.0869 18.1431 28.0869 20.2061C28.0869 22.2691 28.589 24.1483 29.5933 25.7568C30.5976 27.367 31.9933 28.618 33.7822 29.5134C35.5712 30.407 37.6478 30.8546 40.0154 30.8546C41.8588 30.8546 43.4963 30.5653 44.9278 29.9883C46.3576 29.4095 47.5831 28.5431 48.601 27.3874L44.5567 23.384C43.9507 24.0717 43.2835 24.5738 42.555 24.8904C41.8265 25.207 40.9788 25.3653 40.0171 25.3653C39.0554 25.3653 38.201 25.1729 37.5405 24.7866C36.8801 24.4019 36.378 23.8317 36.0341 23.0742C35.9848 22.9653 35.9405 22.8512 35.898 22.7355L49.8401 22.6419C49.978 22.0376 50.0665 21.5066 50.109 21.0521C50.1499 20.5976 50.1703 20.1653 50.1703 19.7517C50.1703 17.7704 49.709 16.0104 48.7882 14.4683C47.8656 12.9278 46.5942 11.7227 44.9703 10.8563L44.9686 10.858ZM37.3737 15.6666C37.978 15.2529 38.6946 15.047 39.5201 15.047C40.3456 15.047 40.9788 15.2257 41.5014 15.5831C42.0239 15.9406 42.4154 16.47 42.6776 17.1712C42.7405 17.3414 42.7967 17.5253 42.8444 17.7193L35.8673 17.7755C35.9065 17.6597 35.9456 17.5474 35.9916 17.4385C36.3082 16.6691 36.7695 16.0768 37.3737 15.6631V15.6666Z" fill="black"/>
<path id="Vector_2" d="M66.0172 11.1587C65.5235 10.791 64.9652 10.4846 64.3457 10.2378C63.3414 9.83952 62.2469 9.63867 61.064 9.63867C59.1661 9.63867 57.4861 10.0863 56.0291 10.9799C54.5703 11.8753 53.4282 13.1195 52.6027 14.7144C51.7772 16.311 51.3652 18.1408 51.3652 20.2038C51.3652 22.2668 51.7772 24.0914 52.6027 25.6727C53.4282 27.2557 54.5703 28.4999 56.0291 29.4072C57.4878 30.3144 59.1661 30.7689 61.064 30.7689C62.2469 30.7689 63.3397 30.5697 64.3457 30.1697C64.9652 29.9229 65.5235 29.6165 66.0172 29.2489V30.3553H73.8997V10.0523H66.0172V11.1587ZM62.8801 23.6727C62.2469 23.6727 61.6699 23.5212 61.1474 23.2182C60.6248 22.9153 60.218 22.5034 59.9303 21.9808C59.641 21.4582 59.4963 20.8659 59.4963 20.2055C59.4963 19.5451 59.6478 18.9544 59.9508 18.4302C60.2537 17.9076 60.6589 17.4957 61.1678 17.1927C61.6767 16.8897 62.2623 16.7382 62.921 16.7382C63.5797 16.7382 64.1652 16.8897 64.6759 17.1927C65.1848 17.4957 65.5763 17.9008 65.852 18.4097C66.1261 18.9187 66.2657 19.5178 66.2657 20.2055C66.2657 21.2234 65.9559 22.0557 65.3363 22.7025C64.7167 23.3493 63.898 23.6727 62.8801 23.6727Z" fill="black"/>
<path id="Vector_3" d="M105.816 10.6721C104.563 9.98446 103.126 9.64062 101.503 9.64062C99.7698 9.64062 98.2276 10.0049 96.8796 10.7351C96.2804 11.0602 95.7425 11.45 95.2591 11.8993C94.7962 11.4057 94.2702 10.9819 93.6796 10.633C92.5647 9.97254 91.3204 9.64233 89.9451 9.64233C88.3774 9.64233 86.9732 9.95892 85.7357 10.5921C85.4157 10.7555 85.1145 10.9393 84.8285 11.1385V10.0559H76.7383V30.3623H84.8285V18.7232C84.8285 18.2551 84.917 17.8568 85.0974 17.5266C85.2762 17.1964 85.5366 16.9428 85.8821 16.7623C86.2259 16.5836 86.6174 16.4934 87.0583 16.4934C87.6915 16.4934 88.214 16.6925 88.6259 17.0925C89.0396 17.4908 89.2455 18.0355 89.2455 18.7232V30.3623H97.3357V18.7232C97.3357 18.2551 97.4242 17.8568 97.6047 17.5266C97.7834 17.1964 98.0438 16.9428 98.3893 16.7623C98.7332 16.5836 99.1247 16.4934 99.5655 16.4934C100.199 16.4934 100.721 16.6925 101.133 17.0925C101.547 17.4908 101.753 18.0355 101.753 18.7232V30.3623H109.843V18.3113C109.843 16.4951 109.486 14.9411 108.771 13.6474C108.054 12.3538 107.072 11.3632 105.819 10.6755L105.816 10.6721Z" fill="black"/>
<path id="Vector_4" d="M135.951 19.2153C135.951 20.1515 135.759 20.943 135.372 21.5881C134.986 22.2349 134.457 22.7302 133.782 23.0741C133.108 23.4179 132.331 23.5898 131.451 23.5898C130.571 23.5898 129.82 23.4179 129.119 23.0741C128.417 22.7302 127.859 22.2281 127.447 21.5677C127.035 20.9072 126.828 20.109 126.828 19.1745V0.973633H118.572V18.4324C118.572 20.8545 119.108 23.0009 120.182 24.8715C121.255 26.7421 122.754 28.2077 124.681 29.2664C126.606 30.3268 128.863 30.8562 131.451 30.8562C134.038 30.8562 136.286 30.3268 138.2 29.2664C140.111 28.2077 141.597 26.749 142.657 24.8919C143.716 23.0349 144.245 20.8953 144.245 18.4732V0.973633H135.949V19.217L135.951 19.2153Z" fill="black"/>
<path id="Vector_5" d="M168.527 14.7164C167.688 13.1215 166.519 11.8755 165.019 10.9819C163.52 10.0883 161.765 9.64062 159.756 9.64062C158.546 9.64062 157.404 9.87382 156.33 10.3419C155.981 10.4934 155.652 10.6636 155.339 10.8491V10.0525H147.249V39.0262H155.132V29.6236C155.504 29.8313 155.903 30.0151 156.328 30.1734C157.401 30.5717 158.543 30.7725 159.755 30.7725C161.763 30.7725 163.516 30.3181 165.018 29.4108C166.517 28.5036 167.686 27.2576 168.526 25.6764C169.365 24.0951 169.785 22.2721 169.785 20.2074C169.785 18.1428 169.365 16.3147 168.526 14.7181L168.527 14.7164ZM161.222 21.9811C160.932 22.5036 160.527 22.9172 160.005 23.2185C159.482 23.5215 158.89 23.673 158.229 23.673C157.569 23.673 156.983 23.5215 156.475 23.2185C155.966 22.9155 155.572 22.5036 155.298 21.9811C155.023 21.4585 154.885 20.8662 154.885 20.2057C154.885 19.5453 155.029 18.9121 155.319 18.3896C155.608 17.867 156.006 17.4602 156.515 17.1725C157.024 16.8832 157.61 16.7385 158.27 16.7385C158.931 16.7385 159.515 16.89 160.023 17.193C160.532 17.4959 160.931 17.9011 161.22 18.41C161.509 18.9189 161.654 19.5181 161.654 20.2057C161.654 20.8934 161.509 21.4585 161.22 21.9811H161.222Z" fill="black"/>
<path id="Vector_6" d="M13.3909 1.00977H0.425781V10.7851" fill="black"/>
<path id="Vector_7" d="M29.7518 1.00977H19.9765C14.579 1.00977 10.2012 5.38764 10.2012 10.7851V30.3357C15.5986 30.3357 19.9765 25.9579 19.9765 20.5604V10.7851H29.7518V1.00977Z" fill="black"/>
</g>
</svg>
