<svg width="28" height="34" viewBox="0 0 28 34" fill="none" xmlns="http://www.w3.org/2000/svg">
<rect x="8" y="20" width="12" height="12" rx="6" stroke="black" stroke-width="3"/>
<g filter="url(#filter0_d_3816_37894)">
<circle cx="14.0007" cy="11.6667" r="4.66667" fill="white"/>
<path fill-rule="evenodd" clip-rule="evenodd" d="M13.6438 25.7884L13.7245 25.8345L13.7567 25.8529C13.8847 25.9221 14.0278 25.9583 14.1733 25.9583C14.3188 25.9583 14.4619 25.9221 14.5899 25.8529L14.6221 25.8356L14.704 25.7884C15.1547 25.5211 15.5944 25.2359 16.0222 24.9333C17.1297 24.1514 18.1645 23.2713 19.114 22.3037C21.3542 20.0105 23.6808 16.565 23.6808 12.1319C23.6808 9.6105 22.6791 7.19239 20.8963 5.4095C19.1134 3.62662 16.6953 2.625 14.1739 2.625C11.6525 2.625 9.23438 3.62662 7.45149 5.4095C5.66861 7.19239 4.66699 9.6105 4.66699 12.1319C4.66699 16.5638 6.99474 20.0105 9.23375 22.3037C10.1829 23.2713 11.2173 24.1514 12.3244 24.9333C12.7525 25.2359 13.1927 25.5212 13.6438 25.7884ZM14.1739 15.5889C15.0907 15.5889 15.9701 15.2247 16.6184 14.5764C17.2667 13.9281 17.6309 13.0488 17.6309 12.1319C17.6309 11.215 17.2667 10.3357 16.6184 9.68738C15.9701 9.03906 15.0907 8.67484 14.1739 8.67484C13.257 8.67484 12.3777 9.03906 11.7294 9.68738C11.0811 10.3357 10.7168 11.215 10.7168 12.1319C10.7168 13.0488 11.0811 13.9281 11.7294 14.5764C12.3777 15.2247 13.257 15.5889 14.1739 15.5889Z" fill="#878787"/>
</g>
<defs>
<filter id="filter0_d_3816_37894" x="2.66699" y="2.625" width="23.0137" height="27.3335" filterUnits="userSpaceOnUse" color-interpolation-filters="sRGB">
<feBlend mode="normal" in="SourceGraphic" in2="effect1_dropShadow_3816_37894" result="shape"/>
</filter>
</defs>
</svg>
