<svg
  width="24"
  height="24"
  viewBox="0 0 24 24"
  fill="none"
  xmlns="http://www.w3.org/2000/svg"
>
<g clip-path="url(#clip0_3322_9487)">
<path
      d="M13.1 22C11.7 22 10.3875 21.7333 9.1625 21.2C7.9375 20.6667 6.87083 19.9458 5.9625 19.0375C5.05417 18.1292 4.33333 17.0625 3.8 15.8375C3.26667 14.6125 3 13.3 3 11.9C3 9.46667 3.775 7.32083 5.325 5.4625C6.56091 3.98073 8.06704 2.94667 9.84337 2.3603C10.509 2.14058 11.1173 2.74241 11.0871 3.4427C11.0375 4.59303 11.1835 5.72462 11.525 6.8375C12.0083 8.4125 12.8417 9.79167 14.025 10.975C15.2083 12.1583 16.5875 12.9917 18.1625 13.475C19.2787 13.8175 20.4138 13.9634 21.5677 13.9125C22.2651 13.8817 22.866 14.4846 22.6509 15.1487C22.0742 16.9285 21.0406 18.4373 19.55 19.675C17.6833 21.225 15.5333 22 13.1 22ZM13.1 20C14.5667 20 15.925 19.6333 17.175 18.9C18.425 18.1667 19.4083 17.1583 20.125 15.875C18.6917 15.7417 17.3333 15.3792 16.05 14.7875C14.7667 14.1958 13.6167 13.3917 12.6 12.375C11.5833 11.3583 10.775 10.2083 10.175 8.925C9.575 7.64167 9.21667 6.28333 9.1 4.85C7.81667 5.56667 6.8125 6.55417 6.0875 7.8125C5.3625 9.07083 5 10.4333 5 11.9C5 14.15 5.7875 16.0625 7.3625 17.6375C8.9375 19.2125 10.85 20 13.1 20Z"
      fill="currentColor"
    />
</g>
<defs>
<clipPath id="clip0_3322_9487">
<rect width="24" height="24" fill="white" />
</clipPath>
</defs>
</svg>
