<svg width="14" height="14" viewBox="0 0 14 14" fill="none" xmlns="http://www.w3.org/2000/svg">
<rect width="14" height="14" rx="7" fill="#F924B0"/>
<path d="M8.56257 4.5C8.56257 4.9144 8.39795 5.31183 8.10493 5.60485C7.8119 5.89788 7.41447 6.0625 7.00007 6.0625C6.58567 6.0625 6.18824 5.89788 5.89522 5.60485C5.60219 5.31183 5.43757 4.9144 5.43757 4.5C5.43757 4.0856 5.60219 3.68817 5.89522 3.39515C6.18824 3.10212 6.58567 2.9375 7.00007 2.9375C7.41447 2.9375 7.8119 3.10212 8.10493 3.39515C8.39795 3.68817 8.56257 4.0856 8.56257 4.5ZM3.87549 10.3825C3.88888 9.56265 4.22396 8.7809 4.80848 8.20585C5.393 7.6308 6.18011 7.30853 7.00007 7.30853C7.82003 7.30853 8.60715 7.6308 9.19166 8.20585C9.77618 8.7809 10.1113 9.56265 10.1247 10.3825C9.1444 10.832 8.07847 11.064 7.00007 11.0625C5.88507 11.0625 4.82674 10.8192 3.87549 10.3825Z" fill="white"/>
</svg>
