<svg
  width="24"
  height="24"
  viewBox="0 0 24 24"
  fill="none"
  xmlns="http://www.w3.org/2000/svg"
>
<g clip-path="url(#clip0_3322_28789)">
<path
      d="M19.6104 17.8019L18.272 16.4635C18.5382 16.213 18.7808 15.943 18.9999 15.6534C19.2191 15.3638 19.4148 15.0625 19.587 14.7494C18.8356 14.6711 18.0999 14.5303 17.3798 14.3268C16.6597 14.1233 15.9709 13.8493 15.3135 13.5049L10.453 8.64446C10.1086 7.987 9.83469 7.30215 9.63119 6.58991C9.42769 5.87766 9.29464 5.14585 9.23202 4.39447C8.91895 4.56666 8.61761 4.76234 8.32802 4.98149C8.03842 5.20064 7.7684 5.44327 7.51794 5.70939L6.20303 4.39447C6.7196 3.86225 7.27922 3.40046 7.88189 3.00912C8.48456 2.61778 9.11462 2.3047 9.77207 2.0699C10.1165 1.94467 10.4334 1.98771 10.723 2.19904C11.0126 2.41036 11.1496 2.69604 11.1339 3.05608C11.087 4.37099 11.3022 5.63503 11.7797 6.8482C12.2571 8.06136 12.9654 9.13755 13.9047 10.0768C14.8439 11.016 15.9162 11.7204 17.1215 12.19C18.3268 12.6596 19.5948 12.871 20.9254 12.824C21.3323 12.8084 21.6337 12.9414 21.8294 13.2232C22.025 13.5049 22.0524 13.8337 21.9115 14.2094C21.6924 14.8668 21.3871 15.5008 20.9958 16.1113C20.6045 16.7218 20.1427 17.2853 19.6104 17.8019ZM18.2486 21.7701L16.3466 19.8917C15.8144 20.0952 15.2704 20.2478 14.7147 20.3495C14.159 20.4513 13.5838 20.5022 12.9889 20.5022C11.674 20.5022 10.4413 20.2517 9.29072 19.7508C8.14017 19.2499 7.13834 18.5728 6.28521 17.7197C5.43208 16.8666 4.75506 15.8647 4.25414 14.7142C3.75322 13.5636 3.50276 12.3309 3.50276 11.016C3.50276 10.4212 3.55363 9.84588 3.65538 9.29018C3.75713 8.73447 3.90975 8.1905 4.11325 7.65828L2.28177 5.82679C2.09392 5.63894 2 5.41197 2 5.14585C2 4.87974 2.09392 4.65276 2.28177 4.46492C2.46961 4.27707 2.69659 4.18315 2.9627 4.18315C3.22882 4.18315 3.4558 4.27707 3.64364 4.46492L19.5635 20.4317C19.7357 20.6039 19.8257 20.8191 19.8335 21.0774C19.8413 21.3357 19.7513 21.5588 19.5635 21.7466C19.3913 21.9188 19.176 22.0088 18.9178 22.0167C18.6595 22.0245 18.4364 21.9423 18.2486 21.7701ZM12.9889 18.6237C13.302 18.6237 13.6151 18.6041 13.9281 18.565C14.2412 18.5259 14.5465 18.4672 14.8439 18.3889L5.61601 9.16103C5.53774 9.47411 5.47904 9.78327 5.43991 10.0885C5.40077 10.3938 5.3812 10.7029 5.3812 11.016C5.3812 13.1293 6.12084 14.9255 7.60012 16.4048C9.0794 17.8841 10.8757 18.6237 12.9889 18.6237Z"
      fill="currentColor"
    />
</g>
<defs>
<clipPath id="clip0_3322_28789">
<rect width="24" height="24" fill="white" />
</clipPath>
</defs>
</svg>
