<svg width="14" height="14" viewBox="0 0 14 14" fill="none" xmlns="http://www.w3.org/2000/svg">
<rect width="14" height="14" rx="7" fill="#832BDA"/>
<g clip-path="url(#clip0_3837_56670)">
<g clip-path="url(#clip1_3837_56670)">
<path d="M5.48318 10.1582C6.28646 10.5703 7.2105 10.6819 8.0888 10.473C8.96709 10.264 9.74187 9.74824 10.2735 9.01858C10.8052 8.28892 11.0587 7.39337 10.9885 6.4933C10.9183 5.59323 10.5289 4.74784 9.89054 4.10946C9.25216 3.47108 8.40677 3.0817 7.5067 3.01148C6.60663 2.94126 5.71108 3.19483 4.98142 3.72648C4.25176 4.25813 3.73599 5.03291 3.52703 5.91121C3.31808 6.7895 3.42969 7.71354 3.84176 8.51682L3 11L5.48318 10.1582Z" stroke="white" stroke-linecap="round" stroke-linejoin="round"/>
<path d="M4.5 7C4.5 6.72386 4.72386 6.5 5 6.5C5.27614 6.5 5.5 6.72386 5.5 7C5.5 7.27614 5.27614 7.5 5 7.5C4.72386 7.5 4.5 7.27614 4.5 7Z" fill="white"/>
<path d="M6.5 7C6.5 6.72386 6.72386 6.5 7 6.5C7.27614 6.5 7.5 6.72386 7.5 7C7.5 7.27614 7.27614 7.5 7 7.5C6.72386 7.5 6.5 7.27614 6.5 7Z" fill="white"/>
<path d="M8.5 7C8.5 6.72386 8.72386 6.5 9 6.5C9.27614 6.5 9.5 6.72386 9.5 7C9.5 7.27614 9.27614 7.5 9 7.5C8.72386 7.5 8.5 7.27614 8.5 7Z" fill="white"/>
</g>
</g>
<defs>
<clipPath id="clip0_3837_56670">
<rect width="10" height="10" fill="white" transform="translate(2 2)"/>
</clipPath>
<clipPath id="clip1_3837_56670">
<rect width="10" height="10" fill="white" transform="translate(2 2)"/>
</clipPath>
</defs>
</svg>
