<svg width="14" height="14" viewBox="0 0 14 14" fill="none" xmlns="http://www.w3.org/2000/svg">
<rect width="14" height="14" rx="7" fill="#F6C107"/>
<g clip-path="url(#clip0_3837_56676)">
<path d="M10 7.39944C10 9.39911 8.6875 10.3989 7.1275 10.9788C7.04581 11.0084 6.95708 11.007 6.87625 10.9748C5.3125 10.3989 4 9.39911 4 7.39944V4.59991C4 4.49384 4.03951 4.39212 4.10984 4.31712C4.18016 4.24211 4.27554 4.19998 4.375 4.19998C5.125 4.19998 6.0625 3.72006 6.715 3.11216C6.79445 3.03977 6.89551 3 7 3C7.10449 3 7.20555 3.03977 7.285 3.11216C7.94125 3.72406 8.875 4.19998 9.625 4.19998C9.72446 4.19998 9.81984 4.24211 9.89017 4.31712C9.96049 4.39212 10 4.49384 10 4.59991V7.39944Z" fill="white"/>
<path d="M6 7L6.66667 7.5L8 6.5" stroke="#F6C107" stroke-linecap="round" stroke-linejoin="round"/>
</g>
<defs>
<clipPath id="clip0_3837_56676">
<rect width="10" height="10" fill="white" transform="translate(2 2)"/>
</clipPath>
</defs>
</svg>
