<svg width="14" height="14" viewBox="0 0 14 14" fill="none" xmlns="http://www.w3.org/2000/svg">
<rect width="14" height="14" rx="7" fill="#18D36E"/>
<g clip-path="url(#clip0_3837_56672)">
<path d="M7 10.6522C9.20889 10.6522 11 8.93901 11 6.82609C11 4.71316 9.20889 3 7 3C4.79111 3 3 4.71316 3 6.82609C3 7.80185 3.38178 8.69182 4.01022 9.36753C4.20222 9.57484 4.33911 9.84985 4.27067 10.1286C4.19572 10.4334 4.05546 10.7164 3.86044 10.9564C4.01651 10.9857 4.17477 11.0002 4.33333 11C4.90311 11 5.43111 10.8136 5.86444 10.4959C6.22444 10.5979 6.60578 10.6522 7 10.6522Z" fill="white"/>
</g>
<defs>
<clipPath id="clip0_3837_56672">
<rect width="10" height="10" fill="white" transform="translate(2 2)"/>
</clipPath>
</defs>
</svg>
