<svg width="14" height="14" viewBox="0 0 14 14" fill="none" xmlns="http://www.w3.org/2000/svg">
<rect width="14" height="14" rx="7" fill="#1FDDC7"/>
<g clip-path="url(#clip0_3837_56668)">
<path d="M7 10.5C6.90667 10.5 6.81167 10.4835 6.715 10.4505C6.61833 10.4175 6.53333 10.3647 6.46 10.2921L5.77 9.66832C5.06333 9.02805 4.425 8.39274 3.855 7.76238C3.285 7.13201 3 6.43729 3 5.67822C3 5.05776 3.21 4.5396 3.63 4.12376C4.05 3.70792 4.57333 3.5 5.2 3.5C5.55333 3.5 5.88667 3.57426 6.2 3.72277C6.51333 3.87129 6.78 4.07426 7 4.33168C7.22 4.07426 7.48667 3.87129 7.8 3.72277C8.11333 3.57426 8.44667 3.5 8.8 3.5C9.42667 3.5 9.95 3.70792 10.37 4.12376C10.79 4.5396 11 5.05776 11 5.67822C11 6.43729 10.7167 7.13366 10.15 7.76733C9.58333 8.40099 8.94 9.03795 8.22 9.67822L7.54 10.2921C7.46667 10.3647 7.38167 10.4175 7.285 10.4505C7.18833 10.4835 7.09333 10.5 7 10.5Z" fill="white"/>
</g>
<defs>
<clipPath id="clip0_3837_56668">
<rect width="10" height="10" fill="white" transform="translate(2 2)"/>
</clipPath>
</defs>
</svg>
