<svg width="24" height="24" viewBox="0 0 24 24" fill="none" xmlns="http://www.w3.org/2000/svg">
<g id="Frame">
<g id="Group 111">
<path id="Vector" d="M9.11475 17.6328L6.5933 22.0001" stroke="#17BEAA" stroke-width="2" stroke-linecap="round" stroke-linejoin="round"/>
<path id="Vector_2" d="M3.0001 14.1018L15.2285 21.1619L16.116 19.6246C16.3035 19.2995 16.3966 18.9286 16.3847 18.5535C16.3729 18.1784 16.2567 17.814 16.0492 17.5014L14.9483 15.8176C14.7407 15.505 14.6245 15.1406 14.6127 14.7655C14.6009 14.3904 14.694 14.0195 14.8814 13.6944L17.2818 9.53672L18.1553 10.041C18.6186 10.3085 19.1692 10.381 19.686 10.2425C20.2027 10.1041 20.6433 9.76599 20.9108 9.30268C21.1783 8.83937 21.2508 8.28877 21.1123 7.77202C20.9738 7.25526 20.6358 6.81468 20.1725 6.54719L13.1848 2.51287C12.7215 2.24538 12.1709 2.17289 11.6542 2.31135C11.1374 2.44982 10.6968 2.78789 10.4293 3.2512C10.1618 3.71451 10.0893 4.26511 10.2278 4.78186C10.3663 5.29862 10.7044 5.7392 11.1677 6.00669L12.0411 6.51098L9.6407 10.6686C9.45288 10.9935 9.17816 11.2596 8.84742 11.4369C8.51668 11.6142 8.14303 11.6958 7.76848 11.6724L5.75987 11.5608C5.38532 11.5374 5.01167 11.619 4.68093 11.7963C4.35019 11.9736 4.07547 12.2397 3.88765 12.5646L3.0001 14.1018Z" stroke="#17BEAA" stroke-width="2" stroke-linecap="round" stroke-linejoin="round"/>
</g>
</g>
</svg>
