<svg width="16" height="16" viewBox="0 0 16 16" fill="none" xmlns="http://www.w3.org/2000/svg">
<g id="Frame">
<rect x="0.5" y="0.5" width="15" height="15" rx="7.5" fill="black"/>
<rect x="0.5" y="0.5" width="15" height="15" rx="7.5" fill="black" fill-opacity="0.2"/>
<rect x="0.5" y="0.5" width="15" height="15" rx="7.5" fill="black" fill-opacity="0.2"/>
<rect x="0.5" y="0.5" width="15" height="15" rx="7.5" stroke="white"/>
<path id="Vector" d="M6.67969 10.1387L5.59742 12.0132" stroke="white" stroke-linecap="round" stroke-linejoin="round"/>
<path id="Vector_2" d="M4.05545 8.62361L9.30416 11.654L9.68511 10.9941C9.76558 10.8546 9.80552 10.6954 9.80045 10.5344C9.79538 10.3734 9.7455 10.217 9.65642 10.0828L9.18389 9.36007C9.09481 9.22587 9.04492 9.06948 9.03985 8.90848C9.03479 8.74748 9.07473 8.58826 9.15519 8.44872L10.1855 6.66416L10.5604 6.88061C10.7593 6.99543 10.9956 7.02654 11.2174 6.96711C11.4392 6.90768 11.6283 6.76257 11.7431 6.5637C11.858 6.36484 11.8891 6.12851 11.8296 5.90671C11.7702 5.68491 11.6251 5.4958 11.4262 5.38098L8.42697 3.64936C8.22811 3.53455 7.99178 3.50343 7.76997 3.56286C7.54817 3.6223 7.35906 3.7674 7.24425 3.96627C7.12943 4.16513 7.09832 4.40146 7.15775 4.62326C7.21718 4.84507 7.36229 5.03418 7.56116 5.14899L7.93606 5.36544L6.90575 7.15C6.82513 7.28946 6.70722 7.40366 6.56526 7.47977C6.42329 7.55588 6.26291 7.59087 6.10215 7.58082L5.24001 7.53296C5.07924 7.52291 4.91886 7.5579 4.7769 7.63401C4.63494 7.71012 4.51702 7.82432 4.43641 7.96378L4.05545 8.62361Z" fill="white"/>
</g>
</svg>
