<svg
  width="28"
  height="29"
  viewBox="0 0 28 29"
  fill="none"
  xmlns="http://www.w3.org/2000/svg"
>
<rect
    x="-0.000976562"
    y="0.5"
    width="28.0008"
    height="28.0008"
    rx="14.0004"
    fill="#F4F4F4"
  />
<path
    d="M20.9995 14.5C20.9995 15.8845 20.589 17.2378 19.8198 18.389C19.0506 19.5401 17.9574 20.4373 16.6783 20.9672C15.3992 21.497 13.9917 21.6356 12.6339 21.3655C11.276 21.0954 10.0287 20.4287 9.04977 19.4497C8.0708 18.4708 7.40411 17.2235 7.13402 15.8656C6.86392 14.5078 7.00254 13.1003 7.53236 11.8212C8.06217 10.5421 8.95938 9.44888 10.1105 8.67971C11.2617 7.91054 12.615 7.5 13.9995 7.5C15.9595 7.5 17.834 8.27778 19.2417 9.63111L20.9995 11.3889"
    stroke="#878787"
    stroke-width="2"
    stroke-linecap="round"
    stroke-linejoin="round"
  />
<path
    d="M20.9997 7.5V11.3889H17.1108"
    stroke="#878787"
    stroke-width="2"
    stroke-linecap="round"
    stroke-linejoin="round"
  />
</svg>
