<svg
  width="24"
  height="24"
  viewBox="0 0 24 24"
  fill="none"
  xmlns="http://www.w3.org/2000/svg"
>
<path
    d="M7 20.332C8.38071 20.332 9.5 19.2127 9.5 17.832C9.5 16.4513 8.38071 15.332 7 15.332C5.61929 15.332 4.5 16.4513 4.5 17.832C4.5 19.2127 5.61929 20.332 7 20.332Z"
    stroke="currentColor"
    stroke-width="2"
    stroke-linecap="round"
    stroke-linejoin="round"
  />
<path
    d="M9.5 17.8346H16.5833C17.3569 17.8346 18.0987 17.5273 18.6457 16.9804C19.1927 16.4334 19.5 15.6915 19.5 14.918C19.5 14.1444 19.1927 13.4026 18.6457 12.8556C18.0987 12.3086 17.3569 12.0013 16.5833 12.0013H7.41667C6.64312 12.0013 5.90125 11.694 5.35427 11.147C4.80729 10.6 4.5 9.85818 4.5 9.08464C4.5 8.31109 4.80729 7.56922 5.35427 7.02224C5.90125 6.47526 6.64312 6.16797 7.41667 6.16797H14.5"
    stroke="currentColor"
    stroke-width="2"
    stroke-linecap="round"
    stroke-linejoin="round"
  />
<path
    d="M17 8.66797C18.3807 8.66797 19.5 7.54868 19.5 6.16797C19.5 4.78726 18.3807 3.66797 17 3.66797C15.6193 3.66797 14.5 4.78726 14.5 6.16797C14.5 7.54868 15.6193 8.66797 17 8.66797Z"
    stroke="currentColor"
    stroke-width="2"
    stroke-linecap="round"
    stroke-linejoin="round"
  />
</svg>
