<svg width="24" height="24" viewBox="0 0 24 24" fill="none" xmlns="http://www.w3.org/2000/svg">
<path d="M12 17.5C13.5217 17.5 14.8188 16.9638 15.8913 15.8913C16.9638 14.8188 17.5 13.5217 17.5 12C17.5 10.4783 16.9638 9.18125 15.8913 8.10875C14.8188 7.03625 13.5217 6.5 12 6.5C10.4783 6.5 9.18125 7.03625 8.10875 8.10875C7.03625 9.18125 6.5 10.4783 6.5 12C6.5 13.5217 7.03625 14.8188 8.10875 15.8913C9.18125 16.9638 10.4783 17.5 12 17.5ZM12 23C10.4783 23 9.04833 22.7113 7.71 22.1338C6.37167 21.5562 5.2075 20.7725 4.2175 19.7825C3.2275 18.7925 2.44375 17.6283 1.86625 16.29C1.28875 14.9517 1 13.5217 1 12C1 10.4783 1.28875 9.04833 1.86625 7.71C2.44375 6.37167 3.2275 5.2075 4.2175 4.2175C5.2075 3.2275 6.37167 2.44375 7.71 1.86625C9.04833 1.28875 10.4783 1 12 1C13.5217 1 14.9517 1.28875 16.29 1.86625C17.6283 2.44375 18.7925 3.2275 19.7825 4.2175C20.7725 5.2075 21.5562 6.37167 22.1338 7.71C22.7113 9.04833 23 10.4783 23 12C23 13.5217 22.7113 14.9517 22.1338 16.29C21.5562 17.6283 20.7725 18.7925 19.7825 19.7825C18.7925 20.7725 17.6283 21.5562 16.29 22.1338C14.9517 22.7113 13.5217 23 12 23ZM12 20.8C14.4567 20.8 16.5375 19.9475 18.2425 18.2425C19.9475 16.5375 20.8 14.4567 20.8 12C20.8 9.54333 19.9475 7.4625 18.2425 5.7575C16.5375 4.0525 14.4567 3.2 12 3.2C9.54333 3.2 7.4625 4.0525 5.7575 5.7575C4.0525 7.4625 3.2 9.54333 3.2 12C3.2 14.4567 4.0525 16.5375 5.7575 18.2425C7.4625 19.9475 9.54333 20.8 12 20.8Z" fill="currentColor"/>
</svg>
