<svg width="28" height="28" viewBox="0 0 28 28" fill="none" xmlns="http://www.w3.org/2000/svg">
<path d="M7.96263 13.9999L11.346 17.3833C11.5793 17.6166 11.6911 17.8888 11.6814 18.1999C11.6717 18.511 11.5501 18.7833 11.3168 19.0166C11.0835 19.2305 10.8112 19.3423 10.5001 19.352C10.189 19.3617 9.9168 19.2499 9.68346 19.0166L4.3168 13.6499C4.08346 13.4166 3.9668 13.1444 3.9668 12.8333C3.9668 12.5222 4.08346 12.2499 4.3168 12.0166L9.68346 6.64993C9.89735 6.43605 10.1647 6.3291 10.4855 6.3291C10.8064 6.3291 11.0835 6.43605 11.3168 6.64993C11.5501 6.88327 11.6668 7.16035 11.6668 7.48118C11.6668 7.80202 11.5501 8.0791 11.3168 8.31243L7.96263 11.6666H18.6668C20.2807 11.6666 21.6564 12.2354 22.7939 13.3729C23.9314 14.5104 24.5001 15.886 24.5001 17.4999V20.9999C24.5001 21.3305 24.3883 21.6076 24.1647 21.8312C23.9411 22.0548 23.664 22.1666 23.3335 22.1666C23.0029 22.1666 22.7258 22.0548 22.5022 21.8312C22.2786 21.6076 22.1668 21.3305 22.1668 20.9999V17.4999C22.1668 16.5277 21.8265 15.7013 21.146 15.0208C20.4654 14.3402 19.639 13.9999 18.6668 13.9999H7.96263Z" fill="currentColor"/>
</svg>
