<svg width="28" height="28" viewBox="0 0 28 28" fill="none" xmlns="http://www.w3.org/2000/svg">
<path d="M20.0374 13.9999L16.654 17.3833C16.4207 17.6166 16.3089 17.8888 16.3186 18.1999C16.3283 18.511 16.4499 18.7833 16.6832 19.0166C16.9165 19.2305 17.1888 19.3423 17.4999 19.352C17.811 19.3617 18.0832 19.2499 18.3165 19.0166L23.6832 13.6499C23.9165 13.4166 24.0332 13.1444 24.0332 12.8333C24.0332 12.5222 23.9165 12.2499 23.6832 12.0166L18.3165 6.64993C18.1026 6.43605 17.8353 6.3291 17.5145 6.3291C17.1936 6.3291 16.9165 6.43605 16.6832 6.64993C16.4499 6.88327 16.3332 7.16035 16.3332 7.48118C16.3332 7.80202 16.4499 8.0791 16.6832 8.31243L20.0374 11.6666H9.3332C7.71931 11.6666 6.34362 12.2354 5.20612 13.3729C4.06862 14.5104 3.49987 15.886 3.49987 17.4999V20.9999C3.49987 21.3305 3.61168 21.6076 3.83529 21.8312C4.0589 22.0548 4.33598 22.1666 4.66654 22.1666C4.99709 22.1666 5.27418 22.0548 5.49779 21.8312C5.7214 21.6076 5.8332 21.3305 5.8332 20.9999V17.4999C5.8332 16.5277 6.17348 15.7013 6.85404 15.0208C7.53459 14.3402 8.36098 13.9999 9.3332 13.9999H20.0374Z" fill="currentColor"/>
</svg>
