<svg width="24" height="24" viewBox="0 0 24 24" fill="none" xmlns="http://www.w3.org/2000/svg">
<path d="M21 15C21 15.5304 20.7893 16.0391 20.4142 16.4142C20.0391 16.7893 19.5304 17 19 17H7L3 21V5C3 4.46957 3.21071 3.96086 3.58579 3.58579C3.96086 3.21071 4.46957 3 5 3H19C19.5304 3 20.0391 3.21071 20.4142 3.58579C20.7893 3.96086 21 4.46957 21 5V15Z" stroke="currentColor" stroke-width="2" stroke-linecap="round" stroke-linejoin="round"/>
<path d="M14.7999 7.50074C14.4549 7.15633 13.9874 6.96289 13.4999 6.96289C13.0124 6.96289 12.5449 7.15633 12.1999 7.50074L11.9999 7.80074L11.6999 7.50074C11.5161 7.34315 11.303 7.22332 11.0728 7.14809C10.8427 7.07285 10.5999 7.04369 10.3585 7.06226C10.1171 7.08083 9.88165 7.14678 9.6657 7.25633C9.44976 7.36588 9.2575 7.51689 9.09992 7.70074C8.94233 7.88459 8.8225 8.09768 8.74726 8.32784C8.67203 8.558 8.64287 8.80073 8.66144 9.04216C8.68001 9.28359 8.74595 9.519 8.8555 9.73495C8.96505 9.9509 9.11606 10.1432 9.29992 10.3007L11.9999 13.0007L14.6999 10.3007C15.5999 9.40074 15.4999 8.20074 14.7999 7.50074Z" stroke="currentColor" stroke-width="2" stroke-linecap="round" stroke-linejoin="round"/>
</svg>
