<svg width="40" height="40" viewBox="0 0 40 40" fill="none" xmlns="http://www.w3.org/2000/svg">
<path d="M3.33301 11.6673L10.683 4.31732C10.9931 4.00537 11.3619 3.75788 11.7681 3.58911C12.1742 3.42035 12.6098 3.33364 13.0497 3.33399H26.9497C27.3895 3.33364 27.8251 3.42035 28.2313 3.58911C28.6375 3.75788 29.0062 4.00537 29.3163 4.31732L36.6663 11.6673" stroke="currentColor" stroke-width="2.5" stroke-linecap="round" stroke-linejoin="round"/>
<path d="M3.33301 11.6673L10.683 4.31732C10.9931 4.00537 11.3619 3.75788 11.7681 3.58911C12.1742 3.42035 12.6098 3.33364 13.0497 3.33399H26.9497C27.3895 3.33364 27.8251 3.42035 28.2313 3.58911C28.6375 3.75788 29.0062 4.00537 29.3163 4.31732L36.6663 11.6673" stroke="currentColor" stroke-opacity="0.2" stroke-width="2.5" stroke-linecap="round" stroke-linejoin="round"/>
<path d="M3.33301 11.6673L10.683 4.31732C10.9931 4.00537 11.3619 3.75788 11.7681 3.58911C12.1742 3.42035 12.6098 3.33364 13.0497 3.33399H26.9497C27.3895 3.33364 27.8251 3.42035 28.2313 3.58911C28.6375 3.75788 29.0062 4.00537 29.3163 4.31732L36.6663 11.6673" stroke="currentColor" stroke-opacity="0.2" stroke-width="2.5" stroke-linecap="round" stroke-linejoin="round"/>
<path d="M6.66699 20V33.3333C6.66699 34.2174 7.01818 35.0652 7.6433 35.6904C8.26842 36.3155 9.11627 36.6667 10.0003 36.6667H30.0003C30.8844 36.6667 31.7322 36.3155 32.3573 35.6904C32.9825 35.0652 33.3337 34.2174 33.3337 33.3333V20" stroke="currentColor" stroke-width="2.5" stroke-linecap="round" stroke-linejoin="round"/>
<path d="M6.66699 20V33.3333C6.66699 34.2174 7.01818 35.0652 7.6433 35.6904C8.26842 36.3155 9.11627 36.6667 10.0003 36.6667H30.0003C30.8844 36.6667 31.7322 36.3155 32.3573 35.6904C32.9825 35.0652 33.3337 34.2174 33.3337 33.3333V20" stroke="currentColor" stroke-opacity="0.2" stroke-width="2.5" stroke-linecap="round" stroke-linejoin="round"/>
<path d="M6.66699 20V33.3333C6.66699 34.2174 7.01818 35.0652 7.6433 35.6904C8.26842 36.3155 9.11627 36.6667 10.0003 36.6667H30.0003C30.8844 36.6667 31.7322 36.3155 32.3573 35.6904C32.9825 35.0652 33.3337 34.2174 33.3337 33.3333V20" stroke="currentColor" stroke-opacity="0.2" stroke-width="2.5" stroke-linecap="round" stroke-linejoin="round"/>
<path d="M25 36.666V29.9993C25 29.1153 24.6488 28.2674 24.0237 27.6423C23.3986 27.0172 22.5507 26.666 21.6667 26.666H18.3333C17.4493 26.666 16.6014 27.0172 15.9763 27.6423C15.3512 28.2674 15 29.1153 15 29.9993V36.666" stroke="currentColor" stroke-width="2.5" stroke-linecap="round" stroke-linejoin="round"/>
<path d="M25 36.666V29.9993C25 29.1153 24.6488 28.2674 24.0237 27.6423C23.3986 27.0172 22.5507 26.666 21.6667 26.666H18.3333C17.4493 26.666 16.6014 27.0172 15.9763 27.6423C15.3512 28.2674 15 29.1153 15 29.9993V36.666" stroke="currentColor" stroke-opacity="0.2" stroke-width="2.5" stroke-linecap="round" stroke-linejoin="round"/>
<path d="M25 36.666V29.9993C25 29.1153 24.6488 28.2674 24.0237 27.6423C23.3986 27.0172 22.5507 26.666 21.6667 26.666H18.3333C17.4493 26.666 16.6014 27.0172 15.9763 27.6423C15.3512 28.2674 15 29.1153 15 29.9993V36.666" stroke="currentColor" stroke-opacity="0.2" stroke-width="2.5" stroke-linecap="round" stroke-linejoin="round"/>
<path d="M3.33301 11.666H36.6663" stroke="currentColor" stroke-width="2.5" stroke-linecap="round" stroke-linejoin="round"/>
<path d="M3.33301 11.666H36.6663" stroke="currentColor" stroke-opacity="0.2" stroke-width="2.5" stroke-linecap="round" stroke-linejoin="round"/>
<path d="M3.33301 11.666H36.6663" stroke="currentColor" stroke-opacity="0.2" stroke-width="2.5" stroke-linecap="round" stroke-linejoin="round"/>
<path d="M36.6663 11.666V16.666C36.6663 17.5501 36.3152 18.3979 35.69 19.023C35.0649 19.6482 34.2171 19.9993 33.333 19.9993C32.3592 19.9458 31.4292 19.5773 30.683 18.9493C30.4841 18.8056 30.245 18.7283 29.9997 18.7283C29.7543 18.7283 29.5152 18.8056 29.3163 18.9493C28.5701 19.5773 27.6401 19.9458 26.6663 19.9993C25.6926 19.9458 24.7626 19.5773 24.0163 18.9493C23.8175 18.8056 23.5784 18.7283 23.333 18.7283C23.0877 18.7283 22.8485 18.8056 22.6497 18.9493C21.9035 19.5773 20.9734 19.9458 19.9997 19.9993C19.0259 19.9458 18.0959 19.5773 17.3497 18.9493C17.1508 18.8056 16.9117 18.7283 16.6663 18.7283C16.421 18.7283 16.1819 18.8056 15.983 18.9493C15.2368 19.5773 14.3068 19.9458 13.333 19.9993C12.3592 19.9458 11.4292 19.5773 10.683 18.9493C10.4841 18.8056 10.245 18.7283 9.99967 18.7283C9.75432 18.7283 9.51521 18.8056 9.31634 18.9493C8.57012 19.5773 7.64012 19.9458 6.66634 19.9993C5.78229 19.9993 4.93444 19.6482 4.30932 19.023C3.6842 18.3979 3.33301 17.5501 3.33301 16.666V11.666" stroke="currentColor" stroke-width="2.5" stroke-linecap="round" stroke-linejoin="round"/>
<path d="M36.6663 11.666V16.666C36.6663 17.5501 36.3152 18.3979 35.69 19.023C35.0649 19.6482 34.2171 19.9993 33.333 19.9993C32.3592 19.9458 31.4292 19.5773 30.683 18.9493C30.4841 18.8056 30.245 18.7283 29.9997 18.7283C29.7543 18.7283 29.5152 18.8056 29.3163 18.9493C28.5701 19.5773 27.6401 19.9458 26.6663 19.9993C25.6926 19.9458 24.7626 19.5773 24.0163 18.9493C23.8175 18.8056 23.5784 18.7283 23.333 18.7283C23.0877 18.7283 22.8485 18.8056 22.6497 18.9493C21.9035 19.5773 20.9734 19.9458 19.9997 19.9993C19.0259 19.9458 18.0959 19.5773 17.3497 18.9493C17.1508 18.8056 16.9117 18.7283 16.6663 18.7283C16.421 18.7283 16.1819 18.8056 15.983 18.9493C15.2368 19.5773 14.3068 19.9458 13.333 19.9993C12.3592 19.9458 11.4292 19.5773 10.683 18.9493C10.4841 18.8056 10.245 18.7283 9.99967 18.7283C9.75432 18.7283 9.51521 18.8056 9.31634 18.9493C8.57012 19.5773 7.64012 19.9458 6.66634 19.9993C5.78229 19.9993 4.93444 19.6482 4.30932 19.023C3.6842 18.3979 3.33301 17.5501 3.33301 16.666V11.666" stroke="currentColor" stroke-opacity="0.2" stroke-width="2.5" stroke-linecap="round" stroke-linejoin="round"/>
<path d="M36.6663 11.666V16.666C36.6663 17.5501 36.3152 18.3979 35.69 19.023C35.0649 19.6482 34.2171 19.9993 33.333 19.9993C32.3592 19.9458 31.4292 19.5773 30.683 18.9493C30.4841 18.8056 30.245 18.7283 29.9997 18.7283C29.7543 18.7283 29.5152 18.8056 29.3163 18.9493C28.5701 19.5773 27.6401 19.9458 26.6663 19.9993C25.6926 19.9458 24.7626 19.5773 24.0163 18.9493C23.8175 18.8056 23.5784 18.7283 23.333 18.7283C23.0877 18.7283 22.8485 18.8056 22.6497 18.9493C21.9035 19.5773 20.9734 19.9458 19.9997 19.9993C19.0259 19.9458 18.0959 19.5773 17.3497 18.9493C17.1508 18.8056 16.9117 18.7283 16.6663 18.7283C16.421 18.7283 16.1819 18.8056 15.983 18.9493C15.2368 19.5773 14.3068 19.9458 13.333 19.9993C12.3592 19.9458 11.4292 19.5773 10.683 18.9493C10.4841 18.8056 10.245 18.7283 9.99967 18.7283C9.75432 18.7283 9.51521 18.8056 9.31634 18.9493C8.57012 19.5773 7.64012 19.9458 6.66634 19.9993C5.78229 19.9993 4.93444 19.6482 4.30932 19.023C3.6842 18.3979 3.33301 17.5501 3.33301 16.666V11.666" stroke="currentColor" stroke-opacity="0.2" stroke-width="2.5" stroke-linecap="round" stroke-linejoin="round"/>
</svg>
