<svg width="20" height="20" viewBox="0 0 20 20" fill="none" xmlns="http://www.w3.org/2000/svg">
<path d="M4.00903 18.0005C3.1757 18.0005 2.46737 17.7088 1.88403 17.1255C1.3007 16.5422 1.00903 15.8338 1.00903 15.0005C1.00903 14.1672 1.3007 13.4588 1.88403 12.8755C2.46737 12.2922 3.1757 12.0005 4.00903 12.0005C4.84237 12.0005 5.5507 12.2922 6.13403 12.8755C6.71737 13.4588 7.00903 14.1672 7.00903 15.0005C7.00903 15.8338 6.71737 16.5422 6.13403 17.1255C5.5507 17.7088 4.84237 18.0005 4.00903 18.0005ZM16.009 18.0005C15.1757 18.0005 14.4674 17.7088 13.884 17.1255C13.3007 16.5422 13.009 15.8338 13.009 15.0005C13.009 14.1672 13.3007 13.4588 13.884 12.8755C14.4674 12.2922 15.1757 12.0005 16.009 12.0005C16.8424 12.0005 17.5507 12.2922 18.134 12.8755C18.7174 13.4588 19.009 14.1672 19.009 15.0005C19.009 15.8338 18.7174 16.5422 18.134 17.1255C17.5507 17.7088 16.8424 18.0005 16.009 18.0005ZM10.009 8.00049C9.1757 8.00049 8.46737 7.70882 7.88403 7.12549C7.3007 6.54215 7.00903 5.83382 7.00903 5.00049C7.00903 4.16716 7.3007 3.45882 7.88403 2.87549C8.46737 2.29215 9.1757 2.00049 10.009 2.00049C10.8424 2.00049 11.5507 2.29215 12.134 2.87549C12.7174 3.45882 13.009 4.16716 13.009 5.00049C13.009 5.83382 12.7174 6.54215 12.134 7.12549C11.5507 7.70882 10.8424 8.00049 10.009 8.00049Z" fill="currentColor"/>
<path d="M4.00903 18.0005C3.1757 18.0005 2.46737 17.7088 1.88403 17.1255C1.3007 16.5422 1.00903 15.8338 1.00903 15.0005C1.00903 14.1672 1.3007 13.4588 1.88403 12.8755C2.46737 12.2922 3.1757 12.0005 4.00903 12.0005C4.84237 12.0005 5.5507 12.2922 6.13403 12.8755C6.71737 13.4588 7.00903 14.1672 7.00903 15.0005C7.00903 15.8338 6.71737 16.5422 6.13403 17.1255C5.5507 17.7088 4.84237 18.0005 4.00903 18.0005ZM16.009 18.0005C15.1757 18.0005 14.4674 17.7088 13.884 17.1255C13.3007 16.5422 13.009 15.8338 13.009 15.0005C13.009 14.1672 13.3007 13.4588 13.884 12.8755C14.4674 12.2922 15.1757 12.0005 16.009 12.0005C16.8424 12.0005 17.5507 12.2922 18.134 12.8755C18.7174 13.4588 19.009 14.1672 19.009 15.0005C19.009 15.8338 18.7174 16.5422 18.134 17.1255C17.5507 17.7088 16.8424 18.0005 16.009 18.0005ZM10.009 8.00049C9.1757 8.00049 8.46737 7.70882 7.88403 7.12549C7.3007 6.54215 7.00903 5.83382 7.00903 5.00049C7.00903 4.16716 7.3007 3.45882 7.88403 2.87549C8.46737 2.29215 9.1757 2.00049 10.009 2.00049C10.8424 2.00049 11.5507 2.29215 12.134 2.87549C12.7174 3.45882 13.009 4.16716 13.009 5.00049C13.009 5.83382 12.7174 6.54215 12.134 7.12549C11.5507 7.70882 10.8424 8.00049 10.009 8.00049Z" fill="currentColor" fill-opacity="0.2"/>
<path d="M4.00903 18.0005C3.1757 18.0005 2.46737 17.7088 1.88403 17.1255C1.3007 16.5422 1.00903 15.8338 1.00903 15.0005C1.00903 14.1672 1.3007 13.4588 1.88403 12.8755C2.46737 12.2922 3.1757 12.0005 4.00903 12.0005C4.84237 12.0005 5.5507 12.2922 6.13403 12.8755C6.71737 13.4588 7.00903 14.1672 7.00903 15.0005C7.00903 15.8338 6.71737 16.5422 6.13403 17.1255C5.5507 17.7088 4.84237 18.0005 4.00903 18.0005ZM16.009 18.0005C15.1757 18.0005 14.4674 17.7088 13.884 17.1255C13.3007 16.5422 13.009 15.8338 13.009 15.0005C13.009 14.1672 13.3007 13.4588 13.884 12.8755C14.4674 12.2922 15.1757 12.0005 16.009 12.0005C16.8424 12.0005 17.5507 12.2922 18.134 12.8755C18.7174 13.4588 19.009 14.1672 19.009 15.0005C19.009 15.8338 18.7174 16.5422 18.134 17.1255C17.5507 17.7088 16.8424 18.0005 16.009 18.0005ZM10.009 8.00049C9.1757 8.00049 8.46737 7.70882 7.88403 7.12549C7.3007 6.54215 7.00903 5.83382 7.00903 5.00049C7.00903 4.16716 7.3007 3.45882 7.88403 2.87549C8.46737 2.29215 9.1757 2.00049 10.009 2.00049C10.8424 2.00049 11.5507 2.29215 12.134 2.87549C12.7174 3.45882 13.009 4.16716 13.009 5.00049C13.009 5.83382 12.7174 6.54215 12.134 7.12549C11.5507 7.70882 10.8424 8.00049 10.009 8.00049Z" fill="currentColor" fill-opacity="0.2"/>
</svg>
