<svg width="24" height="24" viewBox="0 0 24 24" fill="none" xmlns="http://www.w3.org/2000/svg">
<g id="icon-24">
<path id="Vector" d="M8.92334 1.95605L14.348 22.2013" stroke="#17BEAA" stroke-width="2" stroke-linecap="round" stroke-linejoin="round"/>
<path id="Vector_2" d="M9.53271 17.4268L7.11745 21.6101" stroke="#17BEAA" stroke-width="2" stroke-linecap="round" stroke-linejoin="round"/>
<path id="Vector_3" d="M10.8872 9.28377L10.037 10.7563C9.85714 11.0675 9.59399 11.3224 9.27717 11.4922C8.96036 11.6621 8.60244 11.7402 8.24367 11.7178L6.31965 11.6109C5.96088 11.5885 5.60296 11.6666 5.28615 11.8365C4.96933 12.0063 4.70618 12.2612 4.52628 12.5724L3.67611 14.0449L13.7162 19.8416" stroke="#17BEAA" stroke-width="2" stroke-linecap="round" stroke-linejoin="round"/>
<path id="Vector_4" d="M15.743 12.4673L17.3564 9.67279L18.193 10.1558C18.6368 10.4121 19.1642 10.4815 19.6592 10.3489C20.1542 10.2162 20.5763 9.89241 20.8325 9.44861C21.0887 9.00481 21.1582 8.4774 21.0255 7.98241C20.8929 7.48742 20.5691 7.06539 20.1253 6.80916L13.3398 2.8916" stroke="#17BEAA" stroke-width="2" stroke-linecap="round" stroke-linejoin="round"/>
</g>
</svg>
