<svg width="16" height="17" viewBox="0 0 16 17" fill="none" xmlns="http://www.w3.org/2000/svg">
<g id="icon-16">
<path id="Vector" d="M12 13.5C12 12.4391 11.4732 11.4217 10.5355 10.6716C9.59785 9.92143 8.32608 9.5 7 9.5C5.67392 9.5 4.40215 9.92143 3.46447 10.6716C2.52678 11.4217 2 12.4391 2 13.5" stroke="currentColor" stroke-linecap="round" stroke-linejoin="round"/>
<path id="Vector_2" d="M7 9.5C8.65685 9.5 10 8.15685 10 6.5C10 4.84315 8.65685 3.5 7 3.5C5.34315 3.5 4 4.84315 4 6.5C4 8.15685 5.34315 9.5 7 9.5Z" stroke="currentColor" stroke-linecap="round" stroke-linejoin="round"/>
<path id="Vector_3" d="M14 13.5C14 11.4325 12.6517 9.51227 11.3034 8.59202C11.7466 8.28943 12.101 7.89208 12.3352 7.43513C12.5695 6.97819 12.6763 6.47575 12.6463 5.97227C12.6163 5.46879 12.4504 4.97981 12.1632 4.54859C11.8761 4.11737 11.4766 3.75722 11 3.5" stroke="currentColor" stroke-linecap="round" stroke-linejoin="round"/>
</g>
</svg>
