<svg width="10" height="10" viewBox="0 0 10 10" fill="none" xmlns="http://www.w3.org/2000/svg">
<path d="M6.56257 2.5C6.56257 2.9144 6.39795 3.31183 6.10493 3.60485C5.8119 3.89788 5.41447 4.0625 5.00007 4.0625C4.58567 4.0625 4.18824 3.89788 3.89522 3.60485C3.60219 3.31183 3.43757 2.9144 3.43757 2.5C3.43757 2.0856 3.60219 1.68817 3.89522 1.39515C4.18824 1.10212 4.58567 0.9375 5.00007 0.9375C5.41447 0.9375 5.8119 1.10212 6.10493 1.39515C6.39795 1.68817 6.56257 2.0856 6.56257 2.5ZM1.87549 8.3825C1.88888 7.56265 2.22396 6.7809 2.80848 6.20585C3.393 5.6308 4.18011 5.30853 5.00007 5.30853C5.82003 5.30853 6.60715 5.6308 7.19166 6.20585C7.77618 6.7809 8.11127 7.56265 8.12466 8.3825C7.1444 8.83199 6.07847 9.06396 5.00007 9.0625C3.88507 9.0625 2.82674 8.81917 1.87549 8.3825Z" stroke="currentColor" stroke-linecap="round" stroke-linejoin="round"/>
</svg>
