<svg width="40" height="40" viewBox="0 0 40 40" fill="none" xmlns="http://www.w3.org/2000/svg">
<path d="M16.667 16.666V16.9993C17.76 17.4197 18.6709 18.2104 19.2406 19.2335C19.8104 20.2566 20.003 21.4473 19.7848 22.5978C19.5665 23.7484 18.9514 24.7859 18.0466 25.5293C17.1418 26.2728 16.0047 26.6751 14.8337 26.666H8.33365C7.1766 26.6372 6.06537 26.2079 5.1895 25.4513C4.31363 24.6947 3.72737 23.6577 3.53072 22.5171C3.33406 21.3765 3.5392 20.203 4.11114 19.1968C4.68307 18.1906 5.58638 17.4139 6.66699 16.9993V16.666C6.66699 15.3399 7.19377 14.0682 8.13145 13.1305C9.06914 12.1928 10.3409 11.666 11.667 11.666C12.9931 11.666 14.2648 12.1928 15.2025 13.1305C16.1402 14.0682 16.667 15.3399 16.667 16.666Z" stroke="currentColor" stroke-width="2.5" stroke-linecap="round" stroke-linejoin="round"/>
<path d="M16.667 16.666V16.9993C17.76 17.4197 18.6709 18.2104 19.2406 19.2335C19.8104 20.2566 20.003 21.4473 19.7848 22.5978C19.5665 23.7484 18.9514 24.7859 18.0466 25.5293C17.1418 26.2728 16.0047 26.6751 14.8337 26.666H8.33365C7.1766 26.6372 6.06537 26.2079 5.1895 25.4513C4.31363 24.6947 3.72737 23.6577 3.53072 22.5171C3.33406 21.3765 3.5392 20.203 4.11114 19.1968C4.68307 18.1906 5.58638 17.4139 6.66699 16.9993V16.666C6.66699 15.3399 7.19377 14.0682 8.13145 13.1305C9.06914 12.1928 10.3409 11.666 11.667 11.666C12.9931 11.666 14.2648 12.1928 15.2025 13.1305C16.1402 14.0682 16.667 15.3399 16.667 16.666Z" stroke="currentColor" stroke-opacity="0.2" stroke-width="2.5" stroke-linecap="round" stroke-linejoin="round"/>
<path d="M16.667 16.666V16.9993C17.76 17.4197 18.6709 18.2104 19.2406 19.2335C19.8104 20.2566 20.003 21.4473 19.7848 22.5978C19.5665 23.7484 18.9514 24.7859 18.0466 25.5293C17.1418 26.2728 16.0047 26.6751 14.8337 26.666H8.33365C7.1766 26.6372 6.06537 26.2079 5.1895 25.4513C4.31363 24.6947 3.72737 23.6577 3.53072 22.5171C3.33406 21.3765 3.5392 20.203 4.11114 19.1968C4.68307 18.1906 5.58638 17.4139 6.66699 16.9993V16.666C6.66699 15.3399 7.19377 14.0682 8.13145 13.1305C9.06914 12.1928 10.3409 11.666 11.667 11.666C12.9931 11.666 14.2648 12.1928 15.2025 13.1305C16.1402 14.0682 16.667 15.3399 16.667 16.666Z" stroke="currentColor" stroke-opacity="0.2" stroke-width="2.5" stroke-linecap="round" stroke-linejoin="round"/>
<path d="M11.667 26.666V36.666" stroke="currentColor" stroke-width="2.5" stroke-linecap="round" stroke-linejoin="round"/>
<path d="M11.667 26.666V36.666" stroke="currentColor" stroke-opacity="0.2" stroke-width="2.5" stroke-linecap="round" stroke-linejoin="round"/>
<path d="M11.667 26.666V36.666" stroke="currentColor" stroke-opacity="0.2" stroke-width="2.5" stroke-linecap="round" stroke-linejoin="round"/>
<path d="M21.667 31.666V36.666" stroke="currentColor" stroke-width="2.5" stroke-linecap="round" stroke-linejoin="round"/>
<path d="M21.667 31.666V36.666" stroke="currentColor" stroke-opacity="0.2" stroke-width="2.5" stroke-linecap="round" stroke-linejoin="round"/>
<path d="M21.667 31.666V36.666" stroke="currentColor" stroke-opacity="0.2" stroke-width="2.5" stroke-linecap="round" stroke-linejoin="round"/>
<path d="M19.9997 31.6667H33.833C34.1592 31.6621 34.4769 31.5619 34.7467 31.3784C35.0165 31.195 35.2265 30.9364 35.3507 30.6347C35.4749 30.3331 35.5079 30.0016 35.4455 29.6814C35.3831 29.3611 35.2281 29.0663 34.9997 28.8333L29.9997 23.3333H30.4997C30.8259 23.3288 31.1436 23.2285 31.4134 23.0451C31.6832 22.8617 31.8932 22.6031 32.0174 22.3014C32.1416 21.9997 32.1746 21.6683 32.1122 21.348C32.0498 21.0278 31.8947 20.733 31.6663 20.5L26.6663 15H26.9997C27.3401 15.0307 27.6817 14.956 27.9783 14.786C28.2748 14.616 28.5119 14.359 28.6574 14.0497C28.803 13.7405 28.8499 13.3939 28.7919 13.0571C28.7338 12.7203 28.5737 12.4094 28.333 12.1667L21.6663 5L19.333 7.5" stroke="currentColor" stroke-width="2.5" stroke-linecap="round" stroke-linejoin="round"/>
<path d="M19.9997 31.6667H33.833C34.1592 31.6621 34.4769 31.5619 34.7467 31.3784C35.0165 31.195 35.2265 30.9364 35.3507 30.6347C35.4749 30.3331 35.5079 30.0016 35.4455 29.6814C35.3831 29.3611 35.2281 29.0663 34.9997 28.8333L29.9997 23.3333H30.4997C30.8259 23.3288 31.1436 23.2285 31.4134 23.0451C31.6832 22.8617 31.8932 22.6031 32.0174 22.3014C32.1416 21.9997 32.1746 21.6683 32.1122 21.348C32.0498 21.0278 31.8947 20.733 31.6663 20.5L26.6663 15H26.9997C27.3401 15.0307 27.6817 14.956 27.9783 14.786C28.2748 14.616 28.5119 14.359 28.6574 14.0497C28.803 13.7405 28.8499 13.3939 28.7919 13.0571C28.7338 12.7203 28.5737 12.4094 28.333 12.1667L21.6663 5L19.333 7.5" stroke="currentColor" stroke-opacity="0.2" stroke-width="2.5" stroke-linecap="round" stroke-linejoin="round"/>
<path d="M19.9997 31.6667H33.833C34.1592 31.6621 34.4769 31.5619 34.7467 31.3784C35.0165 31.195 35.2265 30.9364 35.3507 30.6347C35.4749 30.3331 35.5079 30.0016 35.4455 29.6814C35.3831 29.3611 35.2281 29.0663 34.9997 28.8333L29.9997 23.3333H30.4997C30.8259 23.3288 31.1436 23.2285 31.4134 23.0451C31.6832 22.8617 31.8932 22.6031 32.0174 22.3014C32.1416 21.9997 32.1746 21.6683 32.1122 21.348C32.0498 21.0278 31.8947 20.733 31.6663 20.5L26.6663 15H26.9997C27.3401 15.0307 27.6817 14.956 27.9783 14.786C28.2748 14.616 28.5119 14.359 28.6574 14.0497C28.803 13.7405 28.8499 13.3939 28.7919 13.0571C28.7338 12.7203 28.5737 12.4094 28.333 12.1667L21.6663 5L19.333 7.5" stroke="currentColor" stroke-opacity="0.2" stroke-width="2.5" stroke-linecap="round" stroke-linejoin="round"/>
</svg>
